<?xml version="1.0" encoding="UTF-8"?>
<!DOCTYPE svg PUBLIC "-//W3C//DTD SVG 1.1//EN" "http://www.w3.org/Graphics/SVG/1.1/DTD/svg11.dtd">
<!-- Creator: CorelDRAW 2019 (64-Bit) -->
<svg xmlns="http://www.w3.org/2000/svg" xml:space="preserve" width="273px" height="100px" version="1.1" style="shape-rendering:geometricPrecision; text-rendering:geometricPrecision; image-rendering:optimizeQuality; fill-rule:evenodd; clip-rule:evenodd"
viewBox="0 0 39.06 14.24"
 xmlns:xlink="http://www.w3.org/1999/xlink"
 xmlns:xodm="http://www.corel.com/coreldraw/odm/2003">
 <defs>
  <style type="text/css">
   <![CDATA[
    .fil0 {fill:#FEFEFE}
    .fil3 {fill:#43A2D9}
    .fil2 {fill:#555E63}
    .fil1 {fill:#E7A24E}
    .fil4 {fill:#555E63;fill-rule:nonzero}
   ]]>
  </style>
 </defs>
 <g id="Слой_x0020_1">
  <metadata id="CorelCorpID_0Corel-Layer"/>
  <g id="_2636006958720">
   <path class="fil0" d="M22.74 6.98c0.68,0.15 1.65,0.3 2.32,0.27 0.58,-0.03 1.68,-0.1 1.62,-0.92 -0.04,-0.7 -0.47,-1.46 -0.91,-2 -0.05,-0.05 -0.04,-0.13 0.01,-0.17l0.16 -0.14c0.03,-0.02 0.06,-0.03 0.1,-0.02 0.03,0 0.06,0.02 0.08,0.04 0.44,0.55 1.02,1.53 1,2.25 -0.05,1.24 -1.17,1.33 -2.16,1.39 -0.39,0.07 -2.19,-0.22 -2.61,-0.35 -0.04,-0.02 -0.08,-0.06 -0.08,-0.11l-0.82 0.4c-0.04,0.02 -0.08,0.02 -0.12,-0.01 -0.04,-0.02 -0.06,-0.05 -0.07,-0.1 -0.05,-0.64 -0.09,-1.29 -0.15,-1.94 -0.07,-0.85 0.03,-1.61 0.64,-2.24 0.59,-0.62 1.72,-0.63 2.4,-0.15 0.7,0.5 0.87,1.38 0.63,2.17 -0.12,0.38 -0.51,0.89 -0.88,1.06l-1.16 0.57zm-0.23 -2.2c0.06,0.28 0.34,0.46 0.62,0.4 0.28,-0.06 0.46,-0.34 0.4,-0.63 -0.06,-0.28 -0.34,-0.46 -0.62,-0.4 -0.29,0.06 -0.46,0.35 -0.4,0.63zm0.35 -2.83c0.04,-0.35 0.35,-0.61 0.7,-0.57 0.35,0.04 0.59,0.37 0.55,0.71 -0.04,0.35 -0.35,0.61 -0.7,0.57 -0.35,-0.04 -0.59,-0.37 -0.55,-0.71zm1.25 0.41c0.17,-0.22 0.47,-0.26 0.69,-0.1 0.22,0.17 0.25,0.48 0.09,0.7 -0.17,0.21 -0.48,0.26 -0.69,0.09 -0.22,-0.16 -0.25,-0.47 -0.09,-0.69zm0.74 0.74c0.17,-0.14 0.42,-0.13 0.57,0.04 0.15,0.17 0.12,0.43 -0.05,0.57 -0.17,0.15 -0.43,0.14 -0.57,-0.03 -0.15,-0.17 -0.12,-0.43 0.05,-0.58zm0.51 0.72c0.2,0.02 0.35,0.19 0.33,0.39 -0.01,0.2 -0.19,0.36 -0.39,0.34 -0.2,-0.01 -0.35,-0.19 -0.34,-0.39 0.02,-0.2 0.2,-0.35 0.4,-0.34zm-0.01 0.8c0.14,0.07 0.17,0.25 0.09,0.38 -0.08,0.13 -0.24,0.18 -0.38,0.1 -0.13,-0.08 -0.17,-0.25 -0.09,-0.38 0.08,-0.13 0.25,-0.18 0.38,-0.1zm-7.47 -0.26c-0.1,0.64 -0.2,1.28 -0.3,1.93 0,0.04 -0.03,0.07 -0.07,0.09 -0.04,0.02 -0.08,0.02 -0.12,-0.01l-2.36 -1.38c-0.35,-0.2 -0.7,-0.74 -0.79,-1.13 -0.19,-0.8 0.05,-1.67 0.79,-2.11 0.71,-0.44 1.84,-0.34 2.38,0.32 0.57,0.68 0.61,1.45 0.47,2.29zm-1.34 -0.9c0.09,-0.28 -0.07,-0.57 -0.34,-0.65 -0.28,-0.09 -0.57,0.08 -0.65,0.35 -0.09,0.28 0.07,0.57 0.34,0.66 0.28,0.08 0.57,-0.08 0.65,-0.36zm-0.73 -2.18c-0.36,0.01 -0.64,-0.27 -0.66,-0.61 -0.01,-0.35 0.25,-0.66 0.6,-0.67 0.36,-0.01 0.64,0.27 0.66,0.61 0.01,0.35 -0.25,0.66 -0.6,0.67zm-0.82 0.34c-0.23,0.14 -0.53,0.07 -0.68,-0.15 -0.15,-0.23 -0.09,-0.54 0.14,-0.69 0.23,-0.15 0.53,-0.08 0.68,0.15 0.15,0.23 0.09,0.54 -0.14,0.69zm-0.64 0.58c-0.16,0.16 -0.42,0.15 -0.58,-0.01 -0.16,-0.16 -0.17,-0.42 -0.01,-0.58 0.16,-0.16 0.42,-0.15 0.58,0.01 0.16,0.16 0.17,0.42 0.01,0.58zm-0.2 0.46c0,0.2 -0.17,0.37 -0.37,0.37 -0.2,0 -0.37,-0.17 -0.37,-0.37 0,-0.2 0.17,-0.36 0.37,-0.36 0.2,0 0.37,0.16 0.37,0.36zm-0.06 0.56c0.07,0.14 0.02,0.31 -0.11,0.38 -0.14,0.06 -0.31,0 -0.38,-0.14 -0.06,-0.13 -0.02,-0.3 0.12,-0.37 0.14,-0.07 0.31,-0.01 0.37,0.13zm6.07 -0.4c0.7,-0.22 1.43,-0.47 2.1,-0.75 0.03,-0.01 0.07,-0.01 0.1,0 0.03,0.02 0.05,0.04 0.07,0.07l0.07 0.18c0.01,0.04 0.01,0.07 0,0.1 -0.01,0.04 -0.04,0.06 -0.07,0.07 -0.76,0.28 -1.52,0.55 -2.28,0.82 -0.03,0.81 -0.27,1.79 -0.56,2.53 0.08,0.1 0.13,0.23 0.14,0.35 0.44,0.15 0.9,0.28 1.34,0.39 0.06,0.02 0.09,0.06 0.1,0.12l0 0.19c0,0.04 -0.02,0.08 -0.05,0.1 -0.03,0.03 -0.07,0.04 -0.11,0.03 -0.46,-0.14 -0.94,-0.28 -1.4,-0.43 -0.12,0.13 -0.29,0.24 -0.47,0.24 -0.09,0 -0.21,-0.02 -0.31,-0.07 -0.59,0.41 -1.38,0.8 -2.05,1.03 -0.07,0.03 -0.31,0.13 -0.31,0.23 0.01,0.16 0.32,0.46 0.43,0.56 0.47,0.41 1.11,0.71 1.69,0.93 0.79,0.3 1.53,0.58 2.36,0.72 0.11,-0.19 0.32,-0.31 0.54,-0.31 0.34,0.01 0.59,0.26 0.59,0.6 0,0.35 -0.25,0.59 -0.6,0.59 -0.25,0 -0.54,-0.2 -0.59,-0.44 -0.18,-0.07 -0.63,-0.15 -0.78,-0.19 -0.67,-0.18 -1.33,-0.41 -1.98,-0.68 -0.56,-0.23 -2.1,-0.98 -2.1,-1.76 0,-0.32 0.24,-0.52 0.53,-0.64 0.71,-0.29 1.38,-0.52 2.01,-0.97 -0.01,-0.07 -0.02,-0.14 -0.02,-0.2 0,-0.34 0.25,-0.58 0.59,-0.58 0.02,0 0.05,0 0.08,0 0.24,-0.66 0.44,-1.48 0.49,-2.19l-1.35 0.43c-0.04,0.02 -0.08,0.01 -0.11,-0.01 -0.03,-0.03 -0.05,-0.06 -0.05,-0.1 0,-0.05 0,-0.13 -0.01,-0.17 -0.01,-0.07 0.03,-0.13 0.09,-0.15 0.49,-0.15 0.98,-0.3 1.46,-0.47 0.04,-0.65 -0.32,-1.36 -0.8,-1.78 -0.49,-0.46 -1.69,-0.44 -2.29,-0.35 -0.04,0.01 -0.07,0 -0.1,-0.02 -0.03,-0.03 -0.04,-0.06 -0.04,-0.1 0,-0.07 0,-0.14 0,-0.21 0,-0.06 0.05,-0.11 0.11,-0.12 0.77,-0.12 2.01,-0.08 2.62,0.47 0.6,0.54 0.88,1.17 0.92,1.94zm-1.02 3.24c-0.1,0 -0.17,0.08 -0.17,0.17 0,0.09 0.07,0.17 0.17,0.17 0.09,0 0.16,-0.08 0.16,-0.17 0,-0.09 -0.07,-0.17 -0.16,-0.17zm2.34 4.63c0.09,0 0.18,-0.07 0.18,-0.17 0,-0.09 -0.09,-0.16 -0.18,-0.16 -0.09,0 -0.17,0.07 -0.17,0.16 0,0.1 0.08,0.17 0.17,0.17zm-9.17 -6.83c0,0.36 0.34,0.52 0.65,0.59 0.37,0.08 0.95,0.04 1.34,-0.01 0.04,-0.01 0.09,0.01 0.11,0.05l0.13 0.17c0.03,0.04 0.04,0.09 0.02,0.13 -0.02,0.04 -0.06,0.07 -0.11,0.07 -0.79,0.07 -2.46,0.23 -2.56,-0.92 -0.05,-0.61 0.43,-1.39 0.83,-1.85 0.02,-0.02 0.05,-0.04 0.09,-0.04 0.03,0 0.07,0.01 0.09,0.04l0.14 0.13c0.03,0.03 0.04,0.06 0.04,0.1 0,0.04 -0.02,0.07 -0.05,0.09 -0.3,0.24 -0.72,1.07 -0.72,1.45z"/>
   <g>
    <path class="fil1" d="M22.39 4.8c-0.08,-0.35 0.14,-0.7 0.49,-0.77 0.35,-0.08 0.69,0.15 0.77,0.5 0.08,0.35 -0.14,0.7 -0.49,0.77 -0.35,0.08 -0.7,-0.14 -0.77,-0.5zm-1 2.71l0 0 2.46 -1.21c0.16,-0.08 0.64,-0.47 0.81,-0.99 0.16,-0.52 0.21,-1.47 -0.58,-2.03 -0.79,-0.56 -1.83,-0.3 -2.24,0.13 -0.42,0.43 -0.7,1.01 -0.6,2.15 0.09,1.15 0.15,1.95 0.15,1.95z"/>
    <path class="fil1" d="M22.99 1.96c-0.04,0.28 0.16,0.54 0.43,0.57 0.28,0.03 0.53,-0.17 0.56,-0.45 0.04,-0.28 -0.16,-0.54 -0.44,-0.57 -0.27,-0.03 -0.52,0.17 -0.55,0.45z"/>
    <path class="fil1" d="M24.21 2.44c-0.12,0.16 -0.1,0.39 0.06,0.51 0.16,0.12 0.39,0.09 0.52,-0.07 0.12,-0.16 0.1,-0.4 -0.06,-0.52 -0.16,-0.12 -0.39,-0.09 -0.52,0.08z"/>
    <path class="fil1" d="M24.93 3.2c-0.12,0.1 -0.14,0.28 -0.04,0.4 0.1,0.11 0.28,0.12 0.4,0.02 0.12,-0.11 0.14,-0.28 0.04,-0.4 -0.1,-0.11 -0.28,-0.12 -0.4,-0.02z"/>
    <path class="fil1" d="M25.35 3.95c-0.14,-0.01 -0.25,0.09 -0.26,0.22 -0.01,0.13 0.09,0.25 0.22,0.26 0.13,0.01 0.25,-0.09 0.26,-0.23 0.01,-0.13 -0.09,-0.24 -0.22,-0.25z"/>
    <path class="fil1" d="M25.29 4.72c-0.07,-0.04 -0.17,-0.01 -0.21,0.06 -0.04,0.08 -0.02,0.17 0.05,0.21 0.07,0.05 0.16,0.02 0.2,-0.06 0.05,-0.07 0.03,-0.16 -0.04,-0.21z"/>
    <path class="fil1" d="M17.76 4.34c0.18,-1.14 -0.06,-1.73 -0.44,-2.19 -0.38,-0.46 -1.4,-0.8 -2.23,-0.3 -0.83,0.5 -0.85,1.45 -0.73,1.98 0.13,0.54 0.58,0.96 0.74,1.05l2.36 1.39c0,0 0.11,-0.8 0.3,-1.93zm-1.09 -0.84l0 0c-0.11,0.34 -0.47,0.54 -0.81,0.44 -0.34,-0.1 -0.54,-0.47 -0.43,-0.81 0.1,-0.35 0.46,-0.54 0.8,-0.44 0.34,0.1 0.54,0.46 0.44,0.81z"/>
    <path class="fil1" d="M15.8 1.15c0.28,-0.01 0.49,-0.25 0.48,-0.53 -0.01,-0.28 -0.24,-0.5 -0.52,-0.49 -0.28,0.01 -0.49,0.25 -0.48,0.53 0.01,0.28 0.24,0.51 0.52,0.49z"/>
    <path class="fil1" d="M14.92 1.51c0.17,-0.11 0.22,-0.34 0.1,-0.51 -0.11,-0.17 -0.34,-0.22 -0.5,-0.11 -0.17,0.11 -0.22,0.34 -0.11,0.51 0.12,0.17 0.34,0.22 0.51,0.11z"/>
    <path class="fil1" d="M14.26 2.11c0.11,-0.11 0.1,-0.29 -0.01,-0.4 -0.11,-0.11 -0.29,-0.12 -0.4,-0.01 -0.1,0.11 -0.1,0.29 0.01,0.4 0.11,0.11 0.29,0.11 0.4,0.01z"/>
    <path class="fil1" d="M14.02 2.66c0,-0.13 -0.11,-0.24 -0.24,-0.24 -0.13,0 -0.24,0.11 -0.24,0.24 0,0.13 0.11,0.24 0.24,0.24 0.13,0 0.24,-0.11 0.24,-0.24z"/>
    <path class="fil1" d="M13.98 3.28c-0.04,-0.08 -0.13,-0.12 -0.2,-0.08 -0.07,0.04 -0.1,0.13 -0.06,0.21 0.04,0.08 0.13,0.11 0.2,0.07 0.07,-0.03 0.1,-0.13 0.06,-0.2z"/>
    <path class="fil2" d="M16.63 0.74c1.72,-0.26 2.4,0.38 2.4,0.38 0.96,0.84 0.83,1.97 0.83,1.97 -0.47,0.16 -1.54,0.49 -1.54,0.49 0,0.05 0,0.2 0,0.2l1.53 -0.5c-0.04,1.18 -0.55,2.51 -0.55,2.51 -0.04,-0.01 -0.16,-0.02 -0.16,-0.02 -0.38,0 -0.47,0.33 -0.47,0.46 0,0.13 0.05,0.24 0.05,0.24 -0.75,0.57 -1.78,0.91 -2.12,1.05 -0.33,0.14 -0.44,0.33 -0.44,0.52 0,0.2 0.24,0.9 2.02,1.65 1.79,0.74 2.83,0.83 2.83,0.9 0,0.07 0.12,0.4 0.47,0.4 0.36,0 0.47,-0.27 0.47,-0.47 0,-0.19 -0.12,-0.47 -0.46,-0.47 -0.35,0 -0.47,0.32 -0.47,0.32 -0.43,-0.07 -0.77,-0.1 -2.47,-0.74 -1.7,-0.64 -2.19,-1.38 -2.2,-1.6 -0.01,-0.23 0.39,-0.36 0.39,-0.36 1.17,-0.41 2.1,-1.06 2.1,-1.06 0,0 0.05,0.09 0.3,0.09 0.25,0 0.42,-0.26 0.42,-0.26l0.03 0.01c0.39,0.13 1.45,0.44 1.45,0.44l0 -0.19c-0.65,-0.15 -1.43,-0.42 -1.43,-0.42 0.02,-0.23 -0.17,-0.41 -0.17,-0.41 0.57,-1.37 0.58,-2.65 0.58,-2.65 1.1,-0.39 2.36,-0.85 2.36,-0.85l-0.07 -0.18c-0.89,0.37 -2.27,0.8 -2.27,0.8 0,-0.54 -0.11,-1.31 -0.89,-2.02 -0.78,-0.7 -2.51,-0.44 -2.51,-0.44 0,0 -0.01,0.18 -0.01,0.21zm2.22 5.49l0 0c0,-0.16 0.13,-0.29 0.29,-0.29 0.16,0 0.29,0.13 0.29,0.29 0,0.16 -0.13,0.3 -0.29,0.3 -0.16,0 -0.29,-0.14 -0.29,-0.3zm2.33 4.29l0 0c0,-0.16 0.13,-0.29 0.3,-0.29 0.17,0 0.3,0.13 0.3,0.29 0,0.16 -0.13,0.29 -0.3,0.29 -0.17,0 -0.3,-0.13 -0.3,-0.29z"/>
    <path class="fil2" d="M25.06 7.38c-0.86,0.04 -2.43,-0.29 -2.43,-0.29l-0.24 0.12c0.77,0.24 2.43,0.37 2.55,0.35 1.44,-0.09 2.02,-0.36 2.05,-1.27 0.04,-0.91 -0.97,-2.17 -0.97,-2.17l-0.15 0.13c0.34,0.41 0.88,1.23 0.94,2.08 0.06,0.84 -0.89,1.01 -1.75,1.05z"/>
    <path class="fil2" d="M12.18 3.86c0.01,-0.35 0.38,-1.25 0.77,-1.55l-0.14 -0.13c0,0 -0.86,0.97 -0.79,1.75 0.06,0.79 0.93,0.93 2.42,0.81l-0.13 -0.18c0,0 -0.88,0.12 -1.38,0.01 -0.51,-0.11 -0.75,-0.37 -0.75,-0.71z"/>
   </g>
   <path class="fil0" d="M26.22 11.98c0.01,-0.08 0.07,-0.13 0.14,-0.13l1.62 0c0.08,0 0.14,0.06 0.14,0.14l0 0.35c0,0.08 -0.06,0.14 -0.14,0.14l-1.03 0 0 0.17 0.94 0c0.08,0 0.15,0.07 0.15,0.15l0 0.35c0,0.08 -0.07,0.14 -0.15,0.14l-0.94 0 0 0.27 1.07 0c0.08,0 0.14,0.07 0.14,0.15l0 0.34c0,0.08 -0.06,0.15 -0.14,0.15l-1.66 0c-0.08,0 -0.14,-0.07 -0.14,-0.15l0 -1.69c-0.02,0.07 -0.07,0.12 -0.15,0.12l-0.49 0 0 1.57c0,0.08 -0.07,0.15 -0.15,0.15l-0.44 0c-0.08,0 -0.14,-0.07 -0.14,-0.15l0 -1.57 -0.51 0c-0.08,0 -0.14,-0.06 -0.14,-0.14l0 -0.35c0,-0.08 0.06,-0.14 0.14,-0.14l1.73 0c0.08,0 0.14,0.05 0.15,0.13zm-8.48 1.91l0 -1.9c0,-0.08 0.07,-0.14 0.15,-0.14l0.66 0c0.06,0 0.12,0.04 0.14,0.1l0.25 0.91 0.25 -0.91c0.01,-0.06 0.07,-0.1 0.14,-0.1l0.66 0c0.08,0 0.14,0.06 0.14,0.14l0 2.06c0,0.08 -0.06,0.15 -0.14,0.15l-0.41 0c-0.08,0 -0.14,-0.07 -0.14,-0.15l0 -0.52 -0.15 0.56c-0.02,0.07 -0.07,0.11 -0.14,0.11l-0.43 0c-0.06,0 -0.12,-0.04 -0.13,-0.11l-0.15 -0.55 0 0.51c0,0.08 -0.07,0.15 -0.15,0.15l-0.4 0c-0.05,0 -0.09,-0.02 -0.12,-0.06 -0.03,0.04 -0.07,0.06 -0.11,0.06l-0.48 0c-0.06,0 -0.11,-0.04 -0.13,-0.09l-0.15 -0.38 -0.68 0 -0.15 0.38c-0.02,0.05 -0.07,0.09 -0.13,0.09l-0.47 0c-0.05,0 -0.09,-0.02 -0.12,-0.07 0,0 0,0 0,0 -0.03,0.04 -0.07,0.07 -0.13,0.07l-0.44 0c-0.05,0 -0.09,-0.02 -0.12,-0.07l-0.62 -0.95 0 0.87c0,0.08 -0.06,0.15 -0.14,0.15l-0.41 0c-0.08,0 -0.14,-0.07 -0.14,-0.15l0 -2.06c0,-0.08 0.06,-0.14 0.14,-0.14l0.43 0c0.05,0 0.09,0.02 0.12,0.06l0.63 0.98 0 -0.9c0,-0.08 0.07,-0.14 0.15,-0.14l0.4 0c0.08,0 0.15,0.06 0.15,0.14l0 1.93 0.81 -1.98c0.03,-0.06 0.08,-0.09 0.14,-0.09l0.46 0c0.06,0 0.11,0.03 0.14,0.09l0.82 1.95zm-1.28 -0.8l0.18 0 -0.09 -0.22 -0.09 0.22zm-4.02 -0.06c0,0.33 -0.09,0.64 -0.33,0.88 -0.24,0.23 -0.54,0.33 -0.87,0.33 -0.33,0 -0.64,-0.09 -0.87,-0.33 -0.24,-0.23 -0.33,-0.54 -0.33,-0.87 0,-0.2 0.02,-0.41 0.11,-0.6 0.06,-0.12 0.14,-0.23 0.23,-0.32 0.1,-0.09 0.21,-0.17 0.33,-0.22 0.17,-0.06 0.35,-0.09 0.53,-0.09 0.32,0 0.63,0.09 0.87,0.33 0.24,0.23 0.33,0.55 0.33,0.89zm-0.87 -0.44c-0.09,-0.1 -0.2,-0.13 -0.33,-0.13 -0.13,0 -0.24,0.03 -0.33,0.13 -0.11,0.11 -0.13,0.29 -0.13,0.43 0,0.15 0.02,0.32 0.13,0.43 0.09,0.1 0.2,0.14 0.33,0.14 0.13,0 0.24,-0.04 0.33,-0.13 0.11,-0.12 0.13,-0.3 0.13,-0.44 0,-0.15 -0.02,-0.32 -0.13,-0.43zm-2.76 -0.11l-0.5 0c-0.08,0 -0.15,-0.06 -0.15,-0.14l0 -0.35c0,-0.08 0.07,-0.14 0.15,-0.14l1.73 0c0.08,0 0.14,0.06 0.14,0.14l0 0.35c0,0.08 -0.06,0.14 -0.14,0.14l-0.5 0 0 1.57c0,0.08 -0.06,0.15 -0.14,0.15l-0.45 0c-0.07,0 -0.14,-0.07 -0.14,-0.15l0 -1.57zm-2.05 0.72c-0.1,-0.03 -0.19,-0.08 -0.26,-0.14 -0.16,-0.14 -0.25,-0.32 -0.25,-0.53 0,-0.14 0.04,-0.26 0.12,-0.38 0.09,-0.12 0.2,-0.2 0.34,-0.26 0.15,-0.06 0.32,-0.08 0.48,-0.08 0.25,0 0.51,0.04 0.71,0.21 0.17,0.14 0.26,0.33 0.27,0.56 0,0.04 -0.01,0.07 -0.04,0.1 -0.03,0.03 -0.06,0.05 -0.1,0.05l-0.31 0.01c0.03,0.01 0.07,0.03 0.11,0.05 0.12,0.06 0.22,0.14 0.29,0.26 0.08,0.12 0.11,0.26 0.11,0.4 0,0.15 -0.04,0.29 -0.13,0.42 -0.09,0.13 -0.21,0.22 -0.36,0.28 -0.16,0.07 -0.35,0.09 -0.53,0.09 -0.25,0 -0.52,-0.05 -0.72,-0.22 -0.19,-0.15 -0.29,-0.37 -0.32,-0.62 0,-0.04 0.01,-0.07 0.03,-0.1 0.03,-0.04 0.06,-0.05 0.1,-0.06l0.43 -0.04c0.01,0 0.02,0 0.03,0zm0.07 0.03c0.03,0.02 0.05,0.05 0.06,0.09 0.01,0.07 0.04,0.16 0.1,0.21 0.06,0.05 0.15,0.07 0.23,0.07 0.07,0 0.17,-0.01 0.23,-0.06 0.03,-0.02 0.05,-0.05 0.05,-0.08 0,-0.02 0,-0.02 -0.01,-0.03 -0.01,-0.02 -0.07,-0.04 -0.09,-0.05 -0.11,-0.04 -0.23,-0.06 -0.34,-0.09 -0.07,-0.01 -0.15,-0.04 -0.23,-0.06zm0.62 -0.57c0,-0.01 -0.01,-0.02 -0.01,-0.04 -0.01,-0.04 -0.02,-0.1 -0.06,-0.13 -0.05,-0.04 -0.14,-0.05 -0.19,-0.05 -0.07,0 -0.16,0.01 -0.22,0.08 0.06,0.04 0.28,0.09 0.35,0.11 0.04,0.01 0.09,0.02 0.13,0.03zm-2.47 0.9l1.08 0c0.07,0 0.14,0.07 0.14,0.15l0 0.34c0,0.08 -0.07,0.15 -0.14,0.15l-1.66 0c-0.08,0 -0.15,-0.07 -0.15,-0.15l0 -2.06c0,-0.08 0.07,-0.14 0.15,-0.14l1.61 0c0.08,0 0.15,0.06 0.15,0.14l0 0.35c0,0.08 -0.07,0.14 -0.15,0.14l-1.03 0 0 0.17 0.95 0c0.08,0 0.14,0.07 0.14,0.15l0 0.35c0,0.08 -0.06,0.14 -0.14,0.14l-0.95 0 0 0.27zm-2.23 -0.38l0 0.87c0,0.08 -0.07,0.15 -0.15,0.15l-0.4 0c-0.08,0 -0.15,-0.07 -0.15,-0.15l0 -2.06c0,-0.08 0.07,-0.14 0.15,-0.14l0.42 0c0.05,0 0.1,0.02 0.12,0.06l0.64 0.98 0 -0.9c0,-0.08 0.06,-0.14 0.14,-0.14l0.41 0c0.08,0 0.14,0.06 0.14,0.14l0 2.06c0,0.08 -0.06,0.15 -0.14,0.15l-0.44 0c-0.05,0 -0.09,-0.02 -0.12,-0.07l-0.62 -0.95zm-1.13 -0.26l-0.03 0.13 0.18 0c0.08,0 0.15,0.06 0.15,0.14l0 0.31c0,0.08 -0.07,0.15 -0.15,0.15l-0.3 0 -0.1 0.43c-0.01,0.07 -0.07,0.12 -0.14,0.12l-0.33 0c-0.05,0 -0.09,-0.02 -0.11,-0.06 -0.03,-0.03 -0.04,-0.07 -0.03,-0.12l0.07 -0.37 -0.03 0 -0.09 0.43c-0.02,0.07 -0.08,0.12 -0.14,0.12l-0.34 0c-0.05,0 -0.08,-0.02 -0.11,-0.06 -0.03,-0.03 -0.04,-0.07 -0.03,-0.12l0.08 -0.37 -0.03 0c-0.08,0 -0.14,-0.07 -0.14,-0.15l0 -0.31c0,-0.08 0.06,-0.14 0.14,-0.14l0.16 0 0.03 -0.13 -0.19 0c-0.08,0 -0.14,-0.06 -0.14,-0.14l0 -0.31c0,-0.08 0.06,-0.15 0.14,-0.15l0.32 0 0.09 -0.43c0.01,-0.07 0.07,-0.11 0.14,-0.11l0.34 0c0.04,0 0.08,0.02 0.11,0.05 0.03,0.04 0.04,0.08 0.03,0.12l-0.08 0.37 0.02 0 0.09 -0.43c0.02,-0.07 0.07,-0.11 0.14,-0.11l0.35 0c0.05,0 0.08,0.02 0.11,0.05 0.03,0.04 0.04,0.08 0.03,0.12l-0.08 0.37 0.02 0c0.08,0 0.15,0.07 0.15,0.15l0 0.31c0,0.08 -0.07,0.14 -0.15,0.14l-0.15 0zm-0.66 0l-0.03 0.13 0.03 0 0.03 -0.13 -0.03 0zm11.67 -1.07l0.44 0c0.08,0 0.14,0.06 0.14,0.14l0 2.06c0,0.08 -0.06,0.15 -0.14,0.15l-0.44 0c-0.08,0 -0.15,-0.07 -0.15,-0.15l0 -2.06c0,-0.08 0.07,-0.14 0.15,-0.14zm8.39 0.63l0 0.17 0.94 0c0.08,0 0.15,0.07 0.15,0.15l0 0.35c0,0.08 -0.07,0.14 -0.15,0.14l-0.94 0 0 0.27 1.07 0c0.08,0 0.14,0.07 0.14,0.15l0 0.34c0,0.08 -0.06,0.15 -0.14,0.15l-1.66 0c-0.08,0 -0.14,-0.07 -0.14,-0.15l0 -2.06c0,-0.08 0.06,-0.14 0.14,-0.14l1.62 0c0.08,0 0.14,0.06 0.14,0.14l0 0.35c0,0.08 -0.06,0.14 -0.14,0.14l-1.03 0zm2.73 0.26c0.04,0.01 0.08,0.03 0.11,0.05 0.12,0.06 0.22,0.14 0.3,0.26 0.08,0.12 0.11,0.26 0.11,0.4 0,0.15 -0.05,0.29 -0.13,0.42 -0.09,0.13 -0.21,0.22 -0.36,0.28 -0.17,0.07 -0.35,0.09 -0.53,0.09 -0.26,0 -0.52,-0.05 -0.73,-0.22 -0.19,-0.15 -0.28,-0.37 -0.31,-0.62 -0.01,-0.04 0,-0.07 0.03,-0.1 0.02,-0.04 0.06,-0.05 0.1,-0.06l0.43 -0.04c0.01,0 0.02,0 0.02,0 -0.09,-0.03 -0.18,-0.08 -0.25,-0.14 -0.16,-0.14 -0.25,-0.32 -0.25,-0.53 0,-0.14 0.04,-0.26 0.12,-0.38 0.08,-0.12 0.2,-0.2 0.33,-0.26 0.16,-0.06 0.32,-0.08 0.49,-0.08 0.24,0 0.51,0.04 0.7,0.21 0.18,0.14 0.26,0.33 0.27,0.56 0,0.04 -0.01,0.07 -0.04,0.1 -0.02,0.03 -0.06,0.05 -0.1,0.05l-0.31 0.01zm-0.26 -0.08c-0.01,-0.01 -0.01,-0.02 -0.01,-0.03 -0.01,-0.05 -0.03,-0.11 -0.07,-0.14 -0.05,-0.04 -0.14,-0.05 -0.19,-0.05 -0.07,0 -0.16,0.01 -0.21,0.08 0.05,0.04 0.27,0.09 0.34,0.11 0.05,0.01 0.09,0.02 0.14,0.03zm-0.63 0.57c0.03,0.02 0.05,0.05 0.06,0.09 0.01,0.07 0.04,0.16 0.11,0.21 0.06,0.05 0.15,0.07 0.22,0.07 0.07,0 0.18,-0.01 0.23,-0.06 0.03,-0.02 0.06,-0.05 0.06,-0.08 0,-0.02 0,-0.02 -0.01,-0.03 -0.02,-0.02 -0.08,-0.04 -0.1,-0.05 -0.1,-0.04 -0.23,-0.06 -0.34,-0.09 -0.07,-0.01 -0.15,-0.04 -0.23,-0.06zm6.72 -0.57l0.52 0 0 -0.67c0,-0.08 0.07,-0.14 0.15,-0.14l0.42 0c0.08,0 0.14,0.06 0.14,0.14l0 2.07c0,0.08 -0.06,0.14 -0.14,0.14l-0.42 0c-0.08,0 -0.15,-0.06 -0.15,-0.14l0 -0.76 -0.52 0 0 0.76c0,0.08 -0.07,0.14 -0.15,0.14l-0.41 0c-0.08,0 -0.15,-0.06 -0.15,-0.14l0 -2.07c0,-0.08 0.07,-0.14 0.15,-0.14l0.41 0c0.08,0 0.15,0.06 0.15,0.14l0 0.67zm1.29 0.38c0,-0.2 0.02,-0.41 0.11,-0.59 0.05,-0.12 0.12,-0.23 0.22,-0.33 0.09,-0.09 0.19,-0.16 0.31,-0.22 0.16,-0.06 0.33,-0.09 0.5,-0.09 0.32,0 0.61,0.1 0.84,0.33 0.23,0.24 0.31,0.56 0.31,0.89 0,0.32 -0.08,0.64 -0.31,0.88 -0.23,0.23 -0.52,0.33 -0.83,0.33 -0.32,0 -0.62,-0.09 -0.84,-0.33 -0.23,-0.24 -0.31,-0.55 -0.31,-0.87zm0.72 -0.02c0,0.15 0.02,0.33 0.12,0.44 0.08,0.09 0.18,0.13 0.31,0.13 0.12,0 0.22,-0.04 0.3,-0.13 0.1,-0.11 0.12,-0.3 0.12,-0.44 0,-0.14 -0.02,-0.32 -0.12,-0.44 -0.08,-0.09 -0.18,-0.12 -0.3,-0.12 -0.13,0 -0.23,0.03 -0.31,0.13 -0.1,0.11 -0.12,0.29 -0.12,0.43zm1.75 -1.17l0.42 0c0.08,0 0.14,0.06 0.14,0.14l0 1.12c0,0.09 0,0.23 0.02,0.32 0.01,0.05 0.03,0.09 0.07,0.12 0.05,0.03 0.12,0.04 0.18,0.04 0.05,0 0.13,0 0.18,-0.04 0.03,-0.02 0.05,-0.05 0.05,-0.09 0.02,-0.1 0.02,-0.22 0.02,-0.32l0 -1.15c0,-0.08 0.06,-0.14 0.14,-0.14l0.42 0c0.08,0 0.15,0.06 0.15,0.14l0 1.09c0,0.17 0,0.39 -0.04,0.56 -0.03,0.11 -0.08,0.22 -0.16,0.32 -0.08,0.09 -0.18,0.16 -0.29,0.21 -0.14,0.05 -0.3,0.07 -0.45,0.07 -0.17,0 -0.36,-0.01 -0.51,-0.08 -0.11,-0.05 -0.22,-0.12 -0.29,-0.22 -0.07,-0.09 -0.12,-0.18 -0.15,-0.29 -0.04,-0.17 -0.04,-0.38 -0.04,-0.55l0 -1.11c0,-0.08 0.06,-0.14 0.14,-0.14zm2.39 1.35c-0.09,-0.03 -0.18,-0.08 -0.25,-0.14 -0.15,-0.14 -0.23,-0.32 -0.23,-0.53 0,-0.13 0.04,-0.26 0.11,-0.37 0.08,-0.12 0.19,-0.21 0.32,-0.26 0.15,-0.07 0.31,-0.09 0.46,-0.09 0.24,0 0.5,0.05 0.68,0.21 0.17,0.15 0.25,0.34 0.25,0.56 0.01,0.04 -0.01,0.08 -0.03,0.11 -0.03,0.02 -0.06,0.04 -0.1,0.04l-0.3 0.01c0.04,0.02 0.07,0.03 0.11,0.05 0.12,0.06 0.21,0.15 0.28,0.26 0.08,0.12 0.11,0.27 0.11,0.41 0,0.14 -0.05,0.28 -0.13,0.41 -0.08,0.13 -0.2,0.22 -0.34,0.28 -0.16,0.07 -0.34,0.09 -0.51,0.09 -0.24,0 -0.5,-0.05 -0.69,-0.22 -0.18,-0.16 -0.27,-0.38 -0.3,-0.61 0,-0.04 0.01,-0.08 0.03,-0.11 0.03,-0.03 0.06,-0.05 0.1,-0.05l0.41 -0.04c0,-0.01 0.01,-0.01 0.02,-0.01zm0.08 0.03c0.02,0.02 0.04,0.06 0.05,0.09 0.01,0.08 0.04,0.17 0.1,0.22 0.06,0.05 0.14,0.06 0.21,0.06 0.06,0 0.16,-0.01 0.21,-0.05 0.03,-0.03 0.05,-0.05 0.05,-0.09 0,-0.01 0,-0.02 -0.01,-0.03 -0.01,-0.02 -0.07,-0.04 -0.09,-0.05 -0.1,-0.03 -0.21,-0.06 -0.32,-0.09 -0.06,-0.01 -0.13,-0.03 -0.2,-0.06zm0.57 -0.57c0,-0.01 -0.01,-0.02 -0.01,-0.03 -0.01,-0.05 -0.02,-0.12 -0.06,-0.15 -0.04,-0.03 -0.12,-0.03 -0.17,-0.03 -0.07,0 -0.15,0 -0.21,0.06 0,0 0.01,0.01 0.01,0.01 0.05,0.04 0.26,0.09 0.33,0.11 0.03,0.01 0.07,0.02 0.11,0.03zm1.53 -0.17l0 0.17 0.89 0c0.08,0 0.14,0.06 0.14,0.14l0 0.35c0,0.08 -0.06,0.14 -0.14,0.14l-0.89 0 0 0.27 1 0c0.08,0 0.15,0.07 0.15,0.15l0 0.35c0,0.08 -0.07,0.14 -0.15,0.14l-1.56 0c-0.08,0 -0.15,-0.06 -0.15,-0.14l0 -2.07c0,-0.08 0.07,-0.14 0.15,-0.14l1.52 0c0.08,0 0.15,0.06 0.15,0.14l0 0.35c0,0.08 -0.07,0.15 -0.15,0.15l-0.96 0z"/>
   <g>
    <path class="fil1" d="M12.3 13.03c0,-0.34 -0.1,-0.6 -0.29,-0.79 -0.19,-0.19 -0.45,-0.29 -0.77,-0.29 -0.18,0 -0.34,0.03 -0.48,0.09 -0.1,0.04 -0.19,0.1 -0.28,0.18 -0.08,0.09 -0.15,0.18 -0.2,0.29 -0.07,0.14 -0.1,0.32 -0.1,0.53 0,0.33 0.1,0.58 0.29,0.77 0.19,0.19 0.45,0.28 0.77,0.28 0.32,0 0.58,-0.09 0.77,-0.28 0.19,-0.19 0.29,-0.45 0.29,-0.78zm-0.62 -0.54l0 0c0.11,0.11 0.16,0.29 0.16,0.53 0,0.24 -0.05,0.42 -0.17,0.54 -0.11,0.11 -0.25,0.17 -0.43,0.17 -0.17,0 -0.32,-0.06 -0.43,-0.18 -0.12,-0.12 -0.18,-0.29 -0.18,-0.53 0,-0.24 0.06,-0.41 0.17,-0.53 0.11,-0.12 0.26,-0.18 0.44,-0.18 0.18,0 0.33,0.06 0.44,0.18z"/>
    <polygon class="fil1" points="9.4,14.05 9.4,12.34 10.04,12.34 10.04,11.99 8.31,11.99 8.31,12.34 8.95,12.34 8.95,14.05 "/>
    <path class="fil1" d="M7.98 13.79c0.07,-0.11 0.11,-0.22 0.11,-0.34 0,-0.13 -0.03,-0.24 -0.09,-0.32 -0.06,-0.09 -0.14,-0.16 -0.24,-0.21 -0.1,-0.05 -0.26,-0.1 -0.47,-0.15 -0.22,-0.05 -0.35,-0.1 -0.41,-0.14 -0.04,-0.04 -0.06,-0.08 -0.06,-0.13 0,-0.05 0.02,-0.09 0.07,-0.12 0.07,-0.05 0.17,-0.08 0.3,-0.08 0.12,0 0.21,0.02 0.27,0.07 0.06,0.05 0.1,0.12 0.12,0.23l0.44 -0.01c0,-0.2 -0.07,-0.35 -0.21,-0.46 -0.14,-0.12 -0.35,-0.18 -0.62,-0.18 -0.17,0 -0.31,0.03 -0.43,0.08 -0.12,0.04 -0.21,0.11 -0.27,0.21 -0.06,0.09 -0.09,0.19 -0.09,0.29 0,0.17 0.06,0.3 0.2,0.42 0.09,0.08 0.26,0.15 0.49,0.2 0.19,0.05 0.3,0.08 0.35,0.09 0.08,0.03 0.13,0.06 0.16,0.09 0.03,0.04 0.05,0.08 0.05,0.13 0,0.07 -0.04,0.14 -0.11,0.2 -0.07,0.05 -0.18,0.08 -0.32,0.08 -0.13,0 -0.24,-0.03 -0.32,-0.1 -0.08,-0.06 -0.13,-0.16 -0.16,-0.29l-0.43 0.04c0.03,0.23 0.12,0.4 0.27,0.52 0.15,0.12 0.36,0.18 0.63,0.18 0.19,0 0.35,-0.02 0.48,-0.07 0.13,-0.05 0.22,-0.13 0.29,-0.23z"/>
    <polygon class="fil1" points="4.84,13.71 4.84,13.15 5.93,13.15 5.93,12.8 4.84,12.8 4.84,12.34 6.01,12.34 6.01,11.99 4.4,11.99 4.4,14.05 6.06,14.05 6.06,13.71 "/>
    <polygon class="fil1" points="3.93,14.05 3.93,11.99 3.52,11.99 3.52,13.37 2.62,11.99 2.2,11.99 2.2,14.05 2.6,14.05 2.6,12.7 3.49,14.05 "/>
    <path class="fil1" d="M1.77 12.78l0 -0.31 -0.2 0 0.12 -0.55 -0.35 0 -0.11 0.55 -0.32 0 0.12 -0.55 -0.34 0 -0.12 0.55 -0.43 0 0 0.31 0.36 0 -0.09 0.41 -0.27 0 0 0.31 0.21 0 -0.12 0.55 0.34 0 0.11 -0.55 0.33 0 -0.11 0.55 0.33 0 0.12 -0.55 0.42 0 0 -0.31 -0.35 0 0.09 -0.41 0.26 0zm-0.93 0l0 0 0.32 0 -0.08 0.41 -0.33 0 0.09 -0.41z"/>
    <polygon class="fil1" points="12.63,11.99 12.63,14.05 13.07,14.05 13.07,11.99 "/>
    <polygon class="fil2" points="13.49,11.99 13.49,14.05 13.9,14.05 13.9,12.7 14.78,14.05 15.22,14.05 15.22,11.99 14.82,11.99 14.82,13.37 13.92,11.99 "/>
    <path class="fil2" d="M16.32 11.99l-0.85 2.06 0.47 0 0.18 -0.47 0.87 0 0.19 0.47 0.48 0 -0.88 -2.06 -0.46 0zm-0.07 1.25l0 0 0.3 -0.77 0.3 0.77 -0.6 0z"/>
    <polygon class="fil3" points="19.33,11.99 18.94,13.4 18.55,11.99 17.89,11.99 17.89,14.05 18.29,14.05 18.3,12.43 18.72,14.05 19.15,14.05 19.58,12.43 19.58,14.05 19.99,14.05 19.99,11.99 "/>
    <polygon class="fil3" points="20.43,11.99 20.43,14.05 22.09,14.05 22.09,13.71 20.87,13.71 20.87,13.15 21.96,13.15 21.96,12.8 20.87,12.8 20.87,12.34 22.05,12.34 22.05,11.99 "/>
    <path class="fil3" d="M22.63 12.95c0.1,0.08 0.26,0.15 0.5,0.2 0.18,0.05 0.3,0.08 0.35,0.09 0.07,0.03 0.13,0.06 0.16,0.09 0.03,0.04 0.04,0.08 0.04,0.13 0,0.07 -0.03,0.14 -0.11,0.2 -0.07,0.05 -0.17,0.08 -0.32,0.08 -0.13,0 -0.24,-0.03 -0.31,-0.1 -0.08,-0.06 -0.14,-0.16 -0.16,-0.29l-0.43 0.04c0.03,0.23 0.12,0.4 0.26,0.52 0.15,0.12 0.36,0.18 0.64,0.18 0.19,0 0.35,-0.02 0.47,-0.07 0.13,-0.05 0.23,-0.13 0.3,-0.23 0.07,-0.11 0.1,-0.22 0.1,-0.34 0,-0.13 -0.03,-0.24 -0.08,-0.32 -0.06,-0.09 -0.14,-0.16 -0.24,-0.21 -0.11,-0.05 -0.26,-0.1 -0.48,-0.15 -0.21,-0.05 -0.35,-0.1 -0.4,-0.14 -0.05,-0.04 -0.07,-0.08 -0.07,-0.13 0,-0.05 0.03,-0.09 0.07,-0.12 0.07,-0.05 0.17,-0.08 0.3,-0.08 0.12,0 0.22,0.02 0.28,0.07 0.06,0.05 0.1,0.12 0.12,0.23l0.44 -0.01c-0.01,-0.2 -0.08,-0.35 -0.22,-0.46 -0.14,-0.12 -0.34,-0.18 -0.61,-0.18 -0.17,0 -0.31,0.03 -0.43,0.08 -0.12,0.04 -0.21,0.11 -0.27,0.21 -0.07,0.09 -0.1,0.19 -0.1,0.29 0,0.17 0.07,0.3 0.2,0.42z"/>
    <polygon class="fil3" points="24.99,12.34 24.99,14.05 25.43,14.05 25.43,12.34 26.07,12.34 26.07,11.99 24.34,11.99 24.34,12.34 "/>
    <polygon class="fil3" points="26.36,11.99 26.36,14.05 28.02,14.05 28.02,13.71 26.8,13.71 26.8,13.15 27.89,13.15 27.89,12.8 26.8,12.8 26.8,12.34 27.98,12.34 27.98,11.99 "/>
    <path class="fil4" d="M29.02 14.06l0 -2.07 0.41 0 0 0.82 0.82 0 0 -0.82 0.42 0 0 2.07 -0.42 0 0 -0.9 -0.82 0 0 0.9 -0.41 0zm1.99 -1.02c0,-0.21 0.03,-0.39 0.1,-0.53 0.04,-0.11 0.11,-0.2 0.19,-0.29 0.08,-0.08 0.17,-0.14 0.27,-0.18 0.12,-0.06 0.27,-0.08 0.44,-0.08 0.31,0 0.55,0.09 0.73,0.28 0.18,0.19 0.28,0.45 0.28,0.79 0,0.33 -0.1,0.59 -0.28,0.78 -0.18,0.19 -0.42,0.28 -0.72,0.28 -0.31,0 -0.55,-0.09 -0.74,-0.28 -0.18,-0.18 -0.27,-0.44 -0.27,-0.77zm0.43 -0.02c0,0.24 0.06,0.42 0.16,0.54 0.11,0.12 0.25,0.18 0.42,0.18 0.16,0 0.3,-0.06 0.41,-0.18 0.1,-0.12 0.16,-0.3 0.16,-0.54 0,-0.24 -0.06,-0.42 -0.16,-0.53 -0.1,-0.12 -0.24,-0.18 -0.41,-0.18 -0.18,0 -0.31,0.06 -0.42,0.18 -0.11,0.12 -0.16,0.3 -0.16,0.53zm1.9 -1.03l0.42 0 0 1.12c0,0.18 0,0.29 0.01,0.35 0.02,0.08 0.06,0.15 0.13,0.2 0.07,0.05 0.16,0.08 0.27,0.08 0.12,0 0.21,-0.03 0.27,-0.07 0.06,-0.05 0.09,-0.11 0.11,-0.18 0.01,-0.07 0.01,-0.19 0.01,-0.35l0 -1.15 0.42 0 0 1.09c0,0.25 -0.01,0.42 -0.03,0.52 -0.02,0.11 -0.07,0.19 -0.13,0.26 -0.06,0.07 -0.14,0.13 -0.24,0.17 -0.1,0.04 -0.23,0.06 -0.39,0.06 -0.2,0 -0.35,-0.02 -0.45,-0.06 -0.1,-0.05 -0.18,-0.11 -0.24,-0.18 -0.06,-0.07 -0.1,-0.15 -0.12,-0.23 -0.03,-0.12 -0.04,-0.29 -0.04,-0.52l0 -1.11zm1.97 1.4l0.41 -0.04c0.02,0.13 0.07,0.23 0.15,0.3 0.07,0.06 0.17,0.09 0.3,0.09 0.13,0 0.23,-0.03 0.3,-0.08 0.07,-0.06 0.1,-0.12 0.1,-0.2 0,-0.05 -0.01,-0.09 -0.04,-0.13 -0.03,-0.03 -0.08,-0.06 -0.15,-0.08 -0.05,-0.02 -0.16,-0.05 -0.33,-0.09 -0.22,-0.06 -0.38,-0.13 -0.47,-0.21 -0.13,-0.11 -0.19,-0.25 -0.19,-0.42 0,-0.1 0.03,-0.2 0.09,-0.29 0.06,-0.09 0.15,-0.16 0.26,-0.21 0.11,-0.05 0.24,-0.07 0.4,-0.07 0.26,0 0.45,0.05 0.58,0.17 0.14,0.11 0.2,0.27 0.21,0.46l-0.42 0.01c-0.02,-0.1 -0.05,-0.18 -0.11,-0.23 -0.06,-0.04 -0.15,-0.07 -0.26,-0.07 -0.12,0 -0.22,0.03 -0.29,0.08 -0.04,0.03 -0.06,0.07 -0.06,0.13 0,0.04 0.02,0.09 0.06,0.12 0.05,0.05 0.18,0.09 0.38,0.14 0.21,0.05 0.35,0.1 0.45,0.15 0.1,0.05 0.17,0.12 0.23,0.21 0.05,0.09 0.08,0.2 0.08,0.33 0,0.12 -0.03,0.23 -0.1,0.33 -0.06,0.1 -0.16,0.18 -0.28,0.23 -0.12,0.05 -0.27,0.07 -0.45,0.07 -0.26,0 -0.46,-0.06 -0.6,-0.18 -0.14,-0.12 -0.22,-0.29 -0.25,-0.52zm2.04 0.67l0 -2.07 1.52 0 0 0.35 -1.11 0 0 0.46 1.04 0 0 0.35 -1.04 0 0 0.56 1.15 0 0 0.35 -1.56 0z"/>
   </g>
  </g>
 </g>
</svg>
