<svg width="178" height="13" viewBox="0 0 178 13" fill="none" xmlns="http://www.w3.org/2000/svg">
<path fill-rule="evenodd" clip-rule="evenodd" d="M59.626 2.59442V11.8079H61.4513V5.75081L65.4029 11.8079H67.3763V2.59442H65.5509V8.76896L61.5369 2.59442H59.626Z" fill="#565F64"/>
<path fill-rule="evenodd" clip-rule="evenodd" d="M54.3061 7.214C54.3061 5.71084 53.8746 4.53718 53.0117 3.69303C52.1488 2.84888 50.998 2.42722 49.5593 2.42803C48.8409 2.41561 48.1267 2.54017 47.455 2.79505C46.9841 2.98641 46.5559 3.26916 46.1949 3.62697C45.818 3.99005 45.5104 4.41871 45.2871 4.89197C44.9894 5.53141 44.8402 6.32051 44.8394 7.25927C44.8394 8.72736 45.2675 9.88103 46.1239 10.7203C46.9803 11.5595 48.1344 11.9784 49.5862 11.9767C51.0184 11.9767 52.1631 11.5559 53.0203 10.7142C53.8775 9.87247 54.3057 8.70656 54.3049 7.21645L54.3061 7.214ZM51.5387 4.80389C52.0281 5.32261 52.2728 6.1109 52.2728 7.16874C52.2728 8.23881 52.0208 9.04177 51.5167 9.57762C51.2614 9.83257 50.9584 10.0347 50.6249 10.1724C50.2914 10.3101 49.9341 10.3807 49.5733 10.3801C49.2125 10.3795 48.8554 10.3078 48.5223 10.1691C48.1893 10.0303 47.8869 9.82726 47.6324 9.57151C47.1218 9.03076 46.8661 8.23881 46.8653 7.19565C46.8653 6.13536 47.1141 5.34097 47.6116 4.81245C48.1091 4.28394 48.7645 4.02091 49.5776 4.02336C50.3932 4.02336 51.0457 4.28353 51.5351 4.80389H51.5387Z" fill="#E7A24F"/>
<path fill-rule="evenodd" clip-rule="evenodd" d="M41.3394 11.8079V4.15182H44.2144V2.59442H36.4775V4.15182H39.3648V11.8079H41.3394Z" fill="#E7A24F"/>
<path fill-rule="evenodd" clip-rule="evenodd" d="M35.0355 10.6115C35.3256 10.1771 35.4867 9.66939 35.5004 9.1472C35.514 8.62501 35.3796 8.10963 35.1126 7.66064C34.8449 7.25682 34.4729 6.93299 34.036 6.72351C33.5797 6.49595 32.8738 6.27329 31.9183 6.06042C30.9628 5.84755 30.3609 5.63957 30.1138 5.44015C30.0241 5.37659 29.9509 5.29264 29.9001 5.19523C29.8492 5.09781 29.8223 4.98971 29.8214 4.87983C29.8196 4.7654 29.8472 4.65242 29.9016 4.55173C29.956 4.45104 30.0354 4.36602 30.1321 4.30483C30.4486 4.08625 30.891 3.97696 31.4595 3.97696C32.0092 3.97696 32.4215 4.08135 32.6964 4.29015C32.9712 4.49894 33.1507 4.84068 33.2347 5.31536L35.2093 5.25052C35.1775 4.39495 34.8537 3.71148 34.2379 3.20009C33.6221 2.68871 32.7054 2.43098 31.4877 2.4269C30.8336 2.41142 30.1826 2.52233 29.5706 2.75355C29.0814 2.93687 28.6583 3.2624 28.3557 3.68823C28.0859 4.07426 27.9408 4.53364 27.9398 5.00462C27.9398 5.73866 28.2379 6.35852 28.8341 6.8642C29.259 7.22633 29.9967 7.53136 31.0472 7.77931C31.8645 7.97261 32.3869 8.10473 32.6156 8.18303C32.8808 8.25313 33.1237 8.38954 33.3215 8.57942C33.4561 8.73365 33.5281 8.93265 33.5234 9.13729C33.5234 9.47577 33.3631 9.77183 33.0426 10.0255C32.7221 10.2791 32.2445 10.4056 31.61 10.4047C31.013 10.4047 30.5387 10.2624 30.1872 9.97777C29.8348 9.69272 29.6036 9.24373 29.4874 8.64181L27.5728 8.82287C27.7024 9.84972 28.0968 10.6319 28.7558 11.1694C29.4148 11.7069 30.3613 11.9756 31.5953 11.9756C32.4419 11.9756 33.1494 11.8635 33.7179 11.6392C34.2525 11.4411 34.7125 11.082 35.0343 10.6115H35.0355Z" fill="#E7A24F"/>
<path fill-rule="evenodd" clip-rule="evenodd" d="M20.9775 10.2505V7.75475H25.854V6.19736H20.9775V4.15182H26.221V2.59442H19.0029V11.8079H26.4119V10.2505H20.9775Z" fill="#E7A24F"/>
<path fill-rule="evenodd" clip-rule="evenodd" d="M16.917 11.8079V2.59442H15.0929V8.76896L11.0789 2.59442H9.16797V11.8079H10.9933V5.75081L14.9449 11.8079H16.917Z" fill="#E7A24F"/>
<path fill-rule="evenodd" clip-rule="evenodd" d="M7.28784 6.10934V4.71955H6.38252L6.90859 2.27274H5.35363L4.84225 4.71955H3.41209L3.93937 2.27274H2.43825L1.90974 4.71955H0V6.10934H1.61001L1.20995 7.9628H0V9.35259H0.910215L0.381703 11.7994H1.88283L2.41134 9.35259H3.87943L3.36927 11.7994H4.86794L5.39278 9.35259H7.29273V7.9628H5.68762L6.08523 6.10934H7.28784ZM3.11112 6.10934H4.5523L4.16693 7.9628H2.71108L3.10623 6.10934H3.11112Z" fill="#E7A24F"/>
<path fill-rule="evenodd" clip-rule="evenodd" d="M55.7739 2.59442V11.8079H57.7485V2.59442H55.7739Z" fill="#E7A24F"/>
<path fill-rule="evenodd" clip-rule="evenodd" d="M72.254 2.59442L68.4614 11.8079H70.5498L71.3597 9.71098H75.2746L76.1163 11.8079H78.2438L74.3375 2.59442H72.254ZM71.9653 8.15358L73.2817 4.74395L74.6372 8.15358H71.9653Z" fill="#565F64"/>
<path fill-rule="evenodd" clip-rule="evenodd" d="M85.7064 2.59442L83.9789 8.87784L82.2307 2.59442H79.2725V11.8079H81.0978L81.1039 4.55432L83.0185 11.8079H84.916L86.838 4.55432L86.8454 11.8079H88.6707V2.59442H85.7064Z" fill="#43A2D9"/>
<path fill-rule="evenodd" clip-rule="evenodd" d="M90.6465 2.59442V11.8079H98.0567V10.2505H92.6223V7.75475H97.4976V6.19736H92.6223V4.15182H97.8658V2.59442H90.6465Z" fill="#43A2D9"/>
<path fill-rule="evenodd" clip-rule="evenodd" d="M100.474 6.86409C100.899 7.22622 101.637 7.53125 102.688 7.7792C103.505 7.9725 104.027 8.10462 104.256 8.18292C104.521 8.25302 104.764 8.38943 104.962 8.5793C105.097 8.73353 105.169 8.93254 105.164 9.13718C105.164 9.47565 105.004 9.77172 104.683 10.0254C104.362 10.279 103.887 10.4054 103.255 10.4046C102.658 10.4046 102.184 10.2623 101.832 9.97766C101.48 9.69261 101.249 9.24362 101.133 8.6417L99.2119 8.82154C99.3416 9.84839 99.7359 10.6306 100.395 11.168C101.054 11.7055 102 11.9743 103.234 11.9743C104.081 11.9743 104.789 11.8621 105.357 11.6378C105.892 11.4398 106.352 11.0807 106.673 10.6102C106.964 10.1757 107.125 9.66805 107.138 9.14587C107.152 8.62368 107.018 8.1083 106.751 7.6593C106.483 7.25549 106.111 6.93166 105.674 6.72217C105.218 6.49462 104.512 6.27196 103.556 6.05909C102.601 5.84621 101.999 5.63823 101.752 5.43882C101.662 5.37526 101.589 5.29131 101.538 5.19389C101.487 5.09648 101.46 4.98838 101.459 4.8785C101.458 4.76406 101.485 4.65108 101.54 4.5504C101.594 4.44971 101.673 4.36469 101.77 4.3035C102.09 4.08084 102.534 3.96951 103.102 3.96951C103.652 3.96951 104.064 4.0739 104.339 4.2827C104.614 4.49149 104.793 4.83323 104.878 5.30791L106.852 5.24307C106.82 4.3875 106.496 3.70403 105.881 3.19264C105.265 2.68126 104.347 2.42516 103.127 2.42434C102.474 2.40775 101.825 2.51699 101.213 2.7461C100.724 2.92942 100.301 3.25495 99.9986 3.68078C99.7265 4.06775 99.58 4.52902 99.5789 5.00206C99.5789 5.73611 99.877 6.35597 100.473 6.86164L100.474 6.86409Z" fill="#43A2D9"/>
<path fill-rule="evenodd" clip-rule="evenodd" d="M111.009 4.15182V11.8079H112.984V4.15182H115.857V2.59442H108.121V4.15182H111.009Z" fill="#43A2D9"/>
<path fill-rule="evenodd" clip-rule="evenodd" d="M117.136 2.59442V11.8079H124.546V10.2505H119.11V7.75475H123.987V6.19736H119.11V4.15182H124.355V2.59442H117.136Z" fill="#43A2D9"/>
<path d="M132.703 12V2.69434H134.582V6.35693H138.264V2.69434H140.143V12H138.264V7.93115H134.582V12H132.703ZM141.71 7.4043C141.71 6.45638 141.852 5.66081 142.136 5.01758C142.347 4.54362 142.635 4.11833 142.999 3.7417C143.367 3.36507 143.769 3.08577 144.205 2.90381C144.785 2.65837 145.453 2.53564 146.211 2.53564C147.582 2.53564 148.678 2.96094 149.499 3.81152C150.324 4.66211 150.737 5.84489 150.737 7.35986C150.737 8.86214 150.328 10.0386 149.512 10.8892C148.695 11.7355 147.603 12.1587 146.236 12.1587C144.853 12.1587 143.752 11.7376 142.936 10.8955C142.119 10.0492 141.71 8.88542 141.71 7.4043ZM143.646 7.34082C143.646 8.39453 143.89 9.19434 144.376 9.74023C144.863 10.2819 145.481 10.5527 146.23 10.5527C146.979 10.5527 147.593 10.284 148.071 9.74658C148.553 9.20492 148.794 8.39453 148.794 7.31543C148.794 6.24902 148.56 5.45345 148.09 4.92871C147.624 4.40397 147.004 4.1416 146.23 4.1416C145.456 4.1416 144.831 4.4082 144.357 4.94141C143.883 5.47038 143.646 6.27018 143.646 7.34082ZM152.197 2.69434H154.076V7.73438C154.076 8.53418 154.099 9.05257 154.146 9.28955C154.226 9.67041 154.416 9.97721 154.717 10.21C155.021 10.4385 155.436 10.5527 155.961 10.5527C156.494 10.5527 156.896 10.4448 157.167 10.229C157.438 10.009 157.601 9.74023 157.656 9.42285C157.711 9.10547 157.738 8.57861 157.738 7.84229V2.69434H159.617V7.58203C159.617 8.69922 159.566 9.48844 159.465 9.94971C159.363 10.411 159.175 10.8003 158.9 11.1177C158.629 11.4351 158.265 11.689 157.808 11.8794C157.351 12.0656 156.754 12.1587 156.018 12.1587C155.129 12.1587 154.454 12.0571 153.993 11.854C153.536 11.6466 153.174 11.38 152.908 11.0542C152.641 10.7241 152.465 10.3792 152.381 10.0195C152.258 9.48633 152.197 8.69922 152.197 7.6582V2.69434ZM161.128 8.97217L162.956 8.79443C163.066 9.40804 163.288 9.85872 163.623 10.1465C163.961 10.4342 164.416 10.5781 164.987 10.5781C165.592 10.5781 166.047 10.4512 166.352 10.1973C166.661 9.93913 166.815 9.63867 166.815 9.2959C166.815 9.07585 166.75 8.88965 166.619 8.7373C166.492 8.58073 166.267 8.44531 165.946 8.33105C165.726 8.25488 165.224 8.11947 164.441 7.9248C163.434 7.67513 162.728 7.36833 162.321 7.00439C161.75 6.49235 161.464 5.86816 161.464 5.13184C161.464 4.65788 161.598 4.21566 161.864 3.80518C162.135 3.39046 162.522 3.0752 163.026 2.85938C163.534 2.64355 164.145 2.53564 164.86 2.53564C166.028 2.53564 166.906 2.79167 167.495 3.30371C168.087 3.81576 168.398 4.49919 168.428 5.354L166.549 5.43652C166.468 4.95833 166.295 4.61556 166.028 4.4082C165.766 4.19661 165.37 4.09082 164.841 4.09082C164.295 4.09082 163.868 4.20296 163.559 4.42725C163.36 4.57113 163.261 4.76367 163.261 5.00488C163.261 5.22493 163.354 5.41325 163.54 5.56982C163.777 5.76872 164.353 5.97607 165.267 6.19189C166.181 6.40771 166.856 6.632 167.292 6.86475C167.732 7.09326 168.074 7.40853 168.32 7.81055C168.569 8.20833 168.694 8.70133 168.694 9.28955C168.694 9.82275 168.546 10.3221 168.25 10.7876C167.954 11.2531 167.535 11.6001 166.993 11.8286C166.451 12.0529 165.777 12.165 164.968 12.165C163.792 12.165 162.888 11.8942 162.258 11.3525C161.627 10.8066 161.251 10.0132 161.128 8.97217ZM170.275 12V2.69434H177.175V4.26855H172.154V6.33154H176.826V7.89941H172.154V10.4321H177.353V12H170.275Z" fill="#565F64"/>
</svg>
