<svg width="100%" viewBox="0 0 1510 296" fill="none" xmlns="http://www.w3.org/2000/svg">
<path d="M877.313 132.252H876.101V138H874.492V125.203H876.101V130.846H877.085L880.688 125.203H882.692L878.632 131.391L882.991 138H881.022L877.313 132.252ZM892.545 132.727C892.545 134.473 892.173 135.817 891.429 136.761C890.685 137.704 889.627 138.176 888.256 138.176C886.938 138.176 885.895 137.719 885.127 136.805C884.365 135.885 883.97 134.587 883.94 132.911V130.503C883.94 128.792 884.318 127.453 885.074 126.486C885.83 125.514 886.885 125.027 888.238 125.027C889.586 125.027 890.635 125.493 891.385 126.425C892.141 127.351 892.527 128.675 892.545 130.397V132.727ZM890.937 130.485C890.937 129.132 890.714 128.127 890.269 127.471C889.829 126.809 889.152 126.478 888.238 126.478C887.354 126.478 886.683 126.812 886.226 127.479C885.774 128.147 885.546 129.132 885.54 130.433V132.727C885.54 134.033 885.766 135.029 886.217 135.715C886.674 136.4 887.354 136.743 888.256 136.743C889.158 136.743 889.826 136.427 890.26 135.794C890.693 135.161 890.919 134.191 890.937 132.885V130.485ZM896.641 132.99V138H895.032V125.203H899.11C900.3 125.203 901.234 125.561 901.914 126.275C902.594 126.984 902.934 127.931 902.934 129.114C902.934 130.345 902.608 131.294 901.958 131.962C901.313 132.624 900.402 132.967 899.225 132.99H896.641ZM896.641 131.61H899.11C899.825 131.61 900.373 131.396 900.754 130.969C901.135 130.541 901.325 129.929 901.325 129.132C901.325 128.364 901.129 127.749 900.736 127.286C900.344 126.823 899.805 126.592 899.119 126.592H896.641V131.61ZM913.331 138H911.714V126.592H906.704V138H905.096V125.203H913.331V138ZM924.52 132.727C924.52 134.473 924.147 135.817 923.403 136.761C922.659 137.704 921.602 138.176 920.23 138.176C918.912 138.176 917.869 137.719 917.102 136.805C916.34 135.885 915.944 134.587 915.915 132.911V130.503C915.915 128.792 916.293 127.453 917.049 126.486C917.805 125.514 918.859 125.027 920.213 125.027C921.561 125.027 922.609 125.493 923.359 126.425C924.115 127.351 924.502 128.675 924.52 130.397V132.727ZM922.911 130.485C922.911 129.132 922.688 128.127 922.243 127.471C921.804 126.809 921.127 126.478 920.213 126.478C919.328 126.478 918.657 126.812 918.2 127.479C917.749 128.147 917.521 129.132 917.515 130.433V132.727C917.515 134.033 917.74 135.029 918.191 135.715C918.648 136.4 919.328 136.743 920.23 136.743C921.133 136.743 921.801 136.427 922.234 135.794C922.668 135.161 922.894 134.191 922.911 132.885V130.485ZM928.615 132.99V138H927.007V125.203H931.085C932.274 125.203 933.209 125.561 933.889 126.275C934.568 126.984 934.908 127.931 934.908 129.114C934.908 130.345 934.583 131.294 933.933 131.962C933.288 132.624 932.377 132.967 931.199 132.99H928.615ZM928.615 131.61H931.085C931.8 131.61 932.348 131.396 932.729 130.969C933.109 130.541 933.3 129.929 933.3 129.132C933.3 128.364 933.104 127.749 932.711 127.286C932.318 126.823 931.779 126.592 931.094 126.592H928.615V131.61ZM941.746 134.66H937.422L936.429 138H934.776L938.898 125.203H940.278L944.409 138H942.757L941.746 134.66ZM937.844 133.271H941.333L939.584 127.453L937.844 133.271ZM952.486 126.592H949.12V138H947.512V126.592H944.154V125.203H952.486V126.592ZM961.047 125.203H962.655V138H961.047V128.139L956.063 138H954.446V125.203H956.063V135.064L961.047 125.203ZM965.521 138V125.203H969.168C970.334 125.203 971.21 125.487 971.796 126.056C972.388 126.624 972.684 127.477 972.684 128.613C972.684 129.211 972.534 129.738 972.235 130.195C971.937 130.652 971.532 131.007 971.022 131.259C971.608 131.435 972.071 131.795 972.411 132.34C972.757 132.885 972.93 133.541 972.93 134.309C972.93 135.457 972.613 136.359 971.98 137.016C971.354 137.672 970.457 138 969.291 138H965.521ZM967.129 132.015V136.62H969.326C969.936 136.62 970.419 136.421 970.776 136.022C971.134 135.618 971.312 135.053 971.312 134.326C971.312 132.785 970.662 132.015 969.361 132.015H967.129ZM967.129 130.661H969.194C969.751 130.661 970.199 130.474 970.539 130.099C970.885 129.724 971.058 129.226 971.058 128.604C971.058 127.901 970.902 127.392 970.592 127.075C970.281 126.753 969.807 126.592 969.168 126.592H967.129V130.661Z" fill="white"/>
<path d="M1218.63 184.939C1218.56 186.311 1218.17 187.359 1217.47 188.086C1216.77 188.812 1215.78 189.176 1214.5 189.176C1213.22 189.176 1212.2 188.689 1211.45 187.717C1210.69 186.738 1210.31 185.414 1210.31 183.744V181.424C1210.31 179.76 1210.7 178.444 1211.47 177.478C1212.25 176.511 1213.31 176.027 1214.65 176.027C1215.89 176.027 1216.84 176.399 1217.52 177.144C1218.2 177.882 1218.57 178.939 1218.63 180.316H1217C1216.93 179.273 1216.71 178.529 1216.34 178.084C1215.97 177.639 1215.41 177.416 1214.65 177.416C1213.78 177.416 1213.11 177.759 1212.64 178.444C1212.17 179.124 1211.94 180.123 1211.94 181.441V183.788C1211.94 185.083 1212.15 186.076 1212.59 186.768C1213.03 187.459 1213.67 187.805 1214.5 187.805C1215.34 187.805 1215.95 187.597 1216.31 187.181C1216.68 186.765 1216.91 186.018 1217 184.939H1218.63ZM1229.13 189H1227.51V177.592H1222.5V189H1220.89V176.203H1229.13V189ZM1240.32 183.727C1240.32 185.473 1239.95 186.817 1239.2 187.761C1238.46 188.704 1237.4 189.176 1236.03 189.176C1234.71 189.176 1233.67 188.719 1232.9 187.805C1232.14 186.885 1231.74 185.587 1231.71 183.911V181.503C1231.71 179.792 1232.09 178.453 1232.85 177.486C1233.6 176.514 1234.66 176.027 1236.01 176.027C1237.36 176.027 1238.41 176.493 1239.16 177.425C1239.91 178.351 1240.3 179.675 1240.32 181.397V183.727ZM1238.71 181.485C1238.71 180.132 1238.49 179.127 1238.04 178.471C1237.6 177.809 1236.92 177.478 1236.01 177.478C1235.13 177.478 1234.46 177.812 1234 178.479C1233.55 179.147 1233.32 180.132 1233.31 181.433V183.727C1233.31 185.033 1233.54 186.029 1233.99 186.715C1234.45 187.4 1235.13 187.743 1236.03 187.743C1236.93 187.743 1237.6 187.427 1238.03 186.794C1238.47 186.161 1238.69 185.191 1238.71 183.885V181.485ZM1244.41 183.99V189H1242.8V176.203H1246.88C1248.07 176.203 1249.01 176.561 1249.69 177.275C1250.37 177.984 1250.71 178.931 1250.71 180.114C1250.71 181.345 1250.38 182.294 1249.73 182.962C1249.09 183.624 1248.17 183.967 1247 183.99H1244.41ZM1244.41 182.61H1246.88C1247.6 182.61 1248.15 182.396 1248.53 181.969C1248.91 181.541 1249.1 180.929 1249.1 180.132C1249.1 179.364 1248.9 178.749 1248.51 178.286C1248.12 177.823 1247.58 177.592 1246.89 177.592H1244.41V182.61ZM1260.27 177.592H1256.9V189H1255.29V177.592H1251.94V176.203H1260.27V177.592Z" fill="white"/>
<path d="M261.485 286.252H260.272V292H258.664V279.203H260.272V284.846H261.257L264.86 279.203H266.864L262.804 285.391L267.163 292H265.194L261.485 286.252ZM274.643 288.66H270.318L269.325 292H267.673L271.795 279.203H273.175L277.306 292H275.653L274.643 288.66ZM270.74 287.271H274.229L272.48 281.453L270.74 287.271ZM284.583 280.486H284.803C285.594 280.492 286.323 280.718 286.991 281.163C287.665 281.608 288.189 282.224 288.564 283.009C288.939 283.788 289.127 284.661 289.127 285.628C289.127 286.601 288.939 287.482 288.564 288.273C288.189 289.059 287.668 289.677 287 290.128C286.332 290.573 285.597 290.799 284.794 290.805H284.583V292.527H283.027V290.805H282.816C282.008 290.805 281.27 290.582 280.602 290.137C279.934 289.691 279.412 289.073 279.037 288.282C278.662 287.491 278.475 286.612 278.475 285.646C278.475 284.673 278.662 283.791 279.037 283C279.418 282.209 279.939 281.594 280.602 281.154C281.27 280.709 282.011 280.486 282.825 280.486H283.027V278.676H284.583V280.486ZM282.816 281.813C281.949 281.813 281.264 282.15 280.76 282.824C280.262 283.498 280.013 284.438 280.013 285.646C280.013 286.847 280.259 287.784 280.751 288.458C281.243 289.126 281.926 289.463 282.799 289.469H283.027V281.813H282.816ZM284.583 281.813V289.469H284.785C285.658 289.469 286.341 289.126 286.833 288.44C287.331 287.755 287.58 286.817 287.58 285.628C287.58 284.468 287.337 283.548 286.851 282.868C286.37 282.183 285.702 281.831 284.847 281.813H284.583ZM297.362 286.085H292.836V290.62H298.109V292H291.228V279.203H298.021V280.592H292.836V284.705H297.362V286.085Z" fill="white"/>
<path d="M313.356 201.397C313.356 201.102 313.25 200.811 313.033 200.593L303.941 191.502C303.729 191.288 303.44 191.169 303.138 191.169H291.773V188.896H297.456C298.084 188.896 298.592 188.387 298.592 187.759V169.575C298.592 168.948 298.084 168.439 297.456 168.439H258.815C258.187 168.439 257.679 168.948 257.679 169.575V187.759C257.679 188.387 258.187 188.896 258.815 188.896H264.498V191.169H253.133C252.83 191.169 252.542 191.288 252.329 191.502L243.237 200.593C243.02 200.811 242.915 201.102 242.915 201.397H242.904V207.079C242.904 209.092 243.786 210.898 245.177 212.148V237.764C245.177 238.392 245.685 238.901 246.314 238.901H309.957C310.585 238.901 311.093 238.392 311.093 237.764V212.148C312.484 210.899 313.366 209.093 313.366 207.079V201.397H313.356ZM289.5 191.169H287.227V188.896H289.5V191.169ZM284.954 188.896V191.169H271.316V188.896H284.954ZM259.952 170.712H296.319V186.623H259.952V170.712ZM266.77 188.896H269.043V191.169H266.77V188.896ZM253.603 193.442H302.667L309.486 200.261H246.784L253.603 193.442ZM245.177 207.079V202.533H254.269V207.079C254.269 209.586 252.23 211.625 249.723 211.625C247.216 211.625 245.177 209.586 245.177 207.079ZM256.542 202.533H265.634V207.079C265.634 209.586 263.595 211.625 261.088 211.625C258.581 211.625 256.542 209.586 256.542 207.079V202.533ZM267.907 202.533H276.999V207.079C276.999 209.586 274.96 211.625 272.453 211.625C269.946 211.625 267.907 209.586 267.907 207.079V202.533ZM279.272 202.533H288.364V207.079C288.364 209.586 286.325 211.625 283.818 211.625C281.311 211.625 279.272 209.586 279.272 207.079V202.533ZM290.637 202.533H299.729V207.079C299.729 209.586 297.69 211.625 295.183 211.625C292.676 211.625 290.637 209.586 290.637 207.079V202.533ZM270.18 236.628H263.361V220.717H270.18V236.628ZM261.088 236.628H254.269V220.717H261.088V236.628ZM302.001 236.628H295.183V220.717H302.001V236.628ZM292.91 236.628H286.091V220.717H292.91V236.628ZM308.82 236.628H304.274V219.581C304.274 218.953 303.766 218.444 303.138 218.444H284.954C284.326 218.444 283.818 218.953 283.818 219.581V236.628H272.453V219.581C272.453 218.953 271.945 218.444 271.316 218.444H253.133C252.504 218.444 251.996 218.953 251.996 219.581V236.628H247.45V213.501C248.163 213.753 248.925 213.898 249.723 213.898C252.094 213.898 254.183 212.681 255.406 210.841C256.628 212.682 258.717 213.898 261.088 213.898C263.459 213.898 265.548 212.681 266.77 210.841C267.993 212.682 270.082 213.898 272.453 213.898C274.824 213.898 276.912 212.681 278.135 210.841C279.358 212.682 281.447 213.898 283.818 213.898C286.188 213.898 288.277 212.681 289.5 210.841C290.723 212.682 292.812 213.898 295.183 213.898C297.553 213.898 299.642 212.681 300.865 210.841C302.088 212.682 304.177 213.898 306.547 213.898C307.345 213.898 308.108 213.753 308.82 213.501V236.628ZM306.547 211.625C304.04 211.625 302.001 209.586 302.001 207.079V202.533H311.093V207.079C311.093 209.586 309.055 211.625 306.547 211.625Z" fill="white"/>
<path d="M262.225 176.394V180.94C262.225 182.82 263.754 184.35 265.634 184.35H269.044V182.077H265.634C265.007 182.077 264.498 181.566 264.498 180.94V176.394C264.498 175.768 265.007 175.258 265.634 175.258H269.044V172.985H265.634C263.754 172.985 262.225 174.515 262.225 176.394Z" fill="white"/>
<path d="M280.408 175.258V184.35H282.681V179.804H286.091V177.531H282.681V175.258H286.091V172.985H282.681C281.428 172.985 280.408 174.004 280.408 175.258Z" fill="white"/>
<path d="M288.364 175.258V182.077C288.364 183.33 289.383 184.35 290.637 184.35H294.046V182.077H290.637V179.804H294.046V177.531H290.637V175.258H294.046V172.985H290.637C289.383 172.985 288.364 174.004 288.364 175.258Z" fill="white"/>
<path d="M274.726 172.985C272.846 172.985 271.316 174.515 271.316 176.394V184.35H273.589V182.077H275.862V184.35H278.135V176.394C278.135 174.515 276.606 172.985 274.726 172.985ZM273.589 179.804V176.394C273.589 175.768 274.099 175.258 274.726 175.258C275.353 175.258 275.862 175.768 275.862 176.394V179.804H273.589Z" fill="white"/>
<svg class="shadow">
<circle cx="278.424" cy="207.424" r="51.9241" stroke="white" stroke-width="3"/>
</svg>
<path d="M916.283 41.0493H917.673C918.243 41.0493 918.705 40.5875 918.705 40.0171C918.705 39.4473 918.243 38.985 917.673 38.985H916.667V36.0955C916.667 35.5251 916.205 35.0633 915.635 35.0633C915.065 35.0633 914.603 35.5251 914.603 36.0955V39.3736C914.603 40.2977 915.357 41.0493 916.283 41.0493Z" fill="white"/>
<path d="M911.487 37.5039V35.1762C911.487 34.6058 911.025 34.144 910.454 34.144C909.885 34.144 909.422 34.6058 909.422 35.1762V37.5039C909.422 38.0738 909.885 38.5361 910.454 38.5361C911.025 38.5361 911.487 38.0738 911.487 37.5039Z" fill="white"/>
<path d="M912.411 33.3737C912.612 33.5737 912.876 33.6737 913.139 33.6737C913.404 33.6737 913.669 33.5721 913.871 33.3694C914.272 32.9651 914.271 32.3114 913.867 31.9099C911.985 30.0401 908.925 30.0401 907.044 31.9099C906.639 32.3114 906.637 32.9651 907.039 33.3694C907.441 33.7737 908.095 33.7758 908.499 33.3737C909.577 32.3018 911.332 32.3018 912.411 33.3737Z" fill="white"/>
<path d="M922.777 34.144C922.208 34.144 921.745 34.6058 921.745 35.1762V37.5039C921.745 38.0738 922.208 38.5361 922.777 38.5361C923.347 38.5361 923.81 38.0738 923.81 37.5039V35.1762C923.81 34.6058 923.347 34.144 922.777 34.144Z" fill="white"/>
<path d="M920.821 33.3737C921.9 32.3017 923.655 32.3017 924.734 33.3737C924.935 33.5736 925.198 33.6736 925.462 33.6736C925.727 33.6736 925.992 33.572 926.193 33.3694C926.595 32.9651 926.593 32.3114 926.189 31.9098C924.308 30.0401 921.247 30.0401 919.366 31.9093C918.962 32.3114 918.959 32.9646 919.361 33.3694C919.763 33.7736 920.417 33.7758 920.821 33.3737Z" fill="white"/>
<path d="M920.46 41.7487H912.848C911.788 41.7487 910.924 42.6094 910.924 43.6673C910.924 46.8106 913.494 49.3684 916.654 49.3684C919.813 49.3684 922.384 46.8106 922.384 43.6673C922.384 42.6094 921.52 41.7487 920.46 41.7487ZM916.654 47.3041C914.682 47.3041 913.069 45.751 912.991 43.813H920.316C920.239 45.751 918.626 47.3041 916.654 47.3041Z" fill="white"/>
<path d="M953.29 52.3052V43.1045C953.29 42.09 952.462 41.2654 951.446 41.2654H943.812C942.795 41.2654 941.969 42.09 941.969 43.1045V52.3052C941.969 55.0598 943.967 57.3574 946.597 57.8418V62.8139H945.647C944.86 62.8139 944.153 63.1525 943.658 63.689L939.616 58.1073C939.132 54.5625 936.071 51.8208 932.378 51.8208H928.155L926.781 48.9388C928.457 47.3067 929.67 45.2059 930.202 42.8513H931.276C933.148 42.8513 934.673 41.3326 934.673 39.4661V36.618C934.673 35.2471 933.85 34.065 932.672 33.5333V30.2654C932.672 29.6955 932.21 29.2332 931.64 29.2332C931.07 29.2332 930.608 29.6955 930.608 30.2654V33.2328H930.474C930.259 29.9568 928.853 27.1753 926.37 25.1492C925.886 24.7535 925.363 24.3939 924.81 24.0692V22.4973C924.81 21.6624 924.682 20.8571 924.444 20.0997C924.828 19.9863 925.233 19.9239 925.653 19.9239H926.333C928.69 19.9239 930.608 21.8302 930.608 24.1729V25.311C930.608 25.8808 931.07 26.3432 931.64 26.3432C932.21 26.3432 932.672 25.8808 932.672 25.311V24.1729C932.672 20.6916 929.828 17.8596 926.333 17.8596H925.653C924.922 17.8596 924.221 17.9859 923.567 18.2138C922.133 15.9485 919.6 14.4389 916.718 14.4389H908.729C904.266 14.4389 900.637 18.0542 900.637 22.4973V33.5333C899.458 34.065 898.636 35.2471 898.636 36.618V39.4661C898.636 41.3331 900.16 42.8513 902.033 42.8513H903.106C903.638 45.2064 904.851 47.3073 906.527 48.9388L905.153 51.8214H900.029C896 51.8214 892.723 55.0818 892.723 59.0895V83.1689C892.723 84.1242 893.5 84.901 894.455 84.901H937.951C938.907 84.901 939.684 84.1236 939.684 83.1689V75.5632L941.708 78.3586C942.665 79.6789 944.212 80.4665 945.849 80.4665C946.922 80.4665 947.951 80.1364 948.824 79.5117C949.932 78.7188 950.662 77.5436 950.881 76.2029C950.938 75.8551 950.957 75.5062 950.942 75.1621C951.908 74.7503 952.587 73.794 952.587 72.6817V71.4141C952.587 70.8443 952.126 70.3819 951.555 70.3819C950.985 70.3819 950.523 70.8443 950.523 71.4141V72.6817C950.523 73.0301 950.236 73.3134 949.884 73.3134H945.646C945.294 73.3134 945.007 73.0301 945.007 72.6817V71.9974C945.007 71.8108 945.091 71.634 945.237 71.513C945.474 71.3173 945.612 71.0254 945.612 70.7179C945.612 70.4099 945.474 70.1185 945.237 69.9223C945.091 69.8014 945.007 69.6245 945.007 69.438V68.7536C945.007 68.5665 945.091 68.3902 945.237 68.2692C945.474 68.073 945.611 67.7817 945.611 67.4742C945.611 67.1661 945.474 66.8748 945.237 66.6785C945.091 66.5576 945.006 66.3807 945.006 66.1942V65.5098C945.006 65.1615 945.294 64.8782 945.646 64.8782H949.883C950.236 64.8782 950.523 65.1615 950.523 65.5098V66.5974C950.523 67.1672 950.985 67.6295 951.555 67.6295C952.125 67.6295 952.587 67.1672 952.587 66.5974V65.5098C952.587 64.0234 951.374 62.8139 949.883 62.8139H948.661V57.8418C951.291 57.3574 953.29 55.0598 953.29 52.3052ZM929.519 59.4782L926.763 61.4129C925.942 61.9887 925.726 63.1348 926.281 63.9686L929.379 68.6171C929.421 68.6896 929.432 68.888 929.4 68.9617C929.378 69.003 929.36 69.0455 929.344 69.0896L924.419 82.8367H923.516V51.2268C924.082 50.9537 924.623 50.6387 925.137 50.2866L929.519 59.4782ZM921.452 67.4L920.456 68.8348L919.498 63.9073L920.663 62.1972L921.452 62.7375V67.4ZM911.856 62.6574L912.613 62.1505L913.811 63.9078L912.853 68.8348L911.857 67.4V62.6574H911.856ZM915.759 63.1009L914.328 61.0006L916.648 59.4443L918.961 61.0302L917.549 63.1009C917.394 63.3283 917.337 63.6084 917.389 63.8788L918.812 71.2018L916.654 74.3111L914.495 71.2018L915.919 63.8788C915.972 63.6084 915.914 63.3283 915.759 63.1009ZM921.452 60.2351L917.375 57.4402C917.414 57.402 917.451 57.3622 917.484 57.3176L921.407 52.0144C921.422 52.0106 921.437 52.0063 921.451 52.0025V60.2351H921.452ZM916.654 54.9684L914.786 52.4433C914.911 52.4471 915.036 52.4498 915.161 52.4498H918.147C918.272 52.4498 918.397 52.4471 918.522 52.4433L916.654 54.9684ZM911.901 52.0144L915.824 57.3176C915.857 57.3617 915.893 57.4015 915.932 57.4386L911.856 60.1716V52.002C911.871 52.0063 911.887 52.0106 911.901 52.0144ZM911.856 71.0201L915.806 76.7093C915.999 76.9872 916.316 77.1528 916.654 77.1528C916.992 77.1528 917.309 76.9872 917.502 76.7093L921.451 71.0201V82.8367H911.856V71.0201ZM932.608 39.4661C932.608 40.1945 932.01 40.7869 931.276 40.7869H930.487C930.498 40.5751 930.504 40.3622 930.504 40.1478V35.2971H931.276C932.01 35.2971 932.608 35.8896 932.608 36.618V39.4661ZM908.729 16.5033H916.718C920.042 16.5033 922.746 19.1922 922.746 22.4973V23.0833C920.907 22.3801 918.836 22.0065 916.654 22.0065C912.871 22.0065 909.421 23.1225 906.938 25.1492C904.456 27.1759 903.049 29.9573 902.834 33.2328H902.701V22.4973C902.701 19.1922 905.405 16.5033 908.729 16.5033ZM902.033 40.7869C901.298 40.7869 900.701 40.1945 900.701 39.4661V36.618C900.701 35.8896 901.298 35.2971 902.033 35.2971H902.805V40.1478C902.805 40.3622 902.811 40.5751 902.821 40.7869H902.033ZM904.869 40.1478V34.1215C904.869 29.1187 908.513 24.0708 916.654 24.0708C924.795 24.0708 928.439 29.1187 928.439 34.1215V40.1478C928.439 45.7929 923.822 50.3855 918.147 50.3855H915.161C909.486 50.3855 904.869 45.7929 904.869 40.1478ZM894.787 59.0895C894.787 56.2199 897.138 53.8851 900.029 53.8851H904.168L901.902 58.6395C901.488 59.4905 901.771 60.584 902.547 61.1285L905.199 62.9896L902.209 67.4752C901.769 68.1365 901.701 69.1165 902.04 69.8395L903.321 73.4139C903.513 73.9504 904.103 74.23 904.64 74.0375C905.177 73.8451 905.456 73.2542 905.264 72.7177L903.964 69.0896C903.948 69.0455 903.931 69.0063 903.91 68.9649C903.877 68.888 903.887 68.6896 903.927 68.6197L907.027 63.9686C907.583 63.1353 907.367 61.9887 906.546 61.4129L903.789 59.4782L908.171 50.2866C908.685 50.6387 909.227 50.9537 909.792 51.2268V82.8367H908.889L906.94 77.3963C906.748 76.8598 906.157 76.5808 905.62 76.7727C905.083 76.9652 904.804 77.556 904.997 78.0925L906.697 82.8367H898.559V66.7726C898.559 66.2022 898.097 65.7405 897.527 65.7405C896.957 65.7405 896.494 66.2022 896.494 66.7726V82.8367H894.787V59.0895ZM937.62 82.8367H926.611L931.269 69.8395C931.606 69.1165 931.539 68.1365 931.099 67.4752L928.109 62.9896L930.761 61.1285C931.537 60.5834 931.82 59.4905 931.409 58.6476L929.139 53.8851H932.377C935.268 53.8851 937.62 56.2199 937.62 59.0895V82.8367ZM945.646 75.3777H948.881C948.882 75.5411 948.871 75.7062 948.844 75.8712C948.714 76.6657 948.28 77.3625 947.622 77.8328C947.102 78.2054 946.489 78.4027 945.849 78.4027C944.873 78.4027 943.95 77.9334 943.381 77.1474L939.684 72.0442V61.7215L942.944 66.2216C942.948 66.6651 943.06 67.0936 943.266 67.4742C943.056 67.8623 942.943 68.3004 942.943 68.7536V69.438C942.943 69.8917 943.056 70.3298 943.266 70.7179C943.056 71.1061 942.943 71.5437 942.943 71.9974V72.6817C942.943 74.1681 944.155 75.3777 945.646 75.3777ZM944.032 43.3297H951.225V45.8655H944.032V43.3297ZM947.629 55.8731C945.646 55.8731 944.032 54.2722 944.032 52.3052V47.9298H951.225V52.3052C951.225 54.2722 949.612 55.8731 947.629 55.8731Z" fill="white"/>
<circle cx="918.424" cy="53.4241" r="51.9241" stroke="white" stroke-width="3"/>
<path d="M1214.88 68.2743L1214.85 70.3384C1216.65 70.3632 1218.11 71.847 1218.11 73.6462H1220.18C1220.18 70.7242 1217.8 68.3144 1214.88 68.2743Z" fill="white"/>
<path d="M1211.03 69.8207L1212.48 71.2906C1212.86 70.921 1213.32 70.6434 1213.82 70.4878L1213.2 68.5173C1212.39 68.7707 1211.64 69.2212 1211.03 69.8207Z" fill="white"/>
<path d="M1209.43 73.6462H1211.5C1211.5 73.1121 1211.62 72.6027 1211.86 72.1323L1210.03 71.1859C1209.64 71.941 1209.43 72.7918 1209.43 73.6462Z" fill="white"/>
<path d="M1218.92 87.8247L1226.29 95.2004L1219.81 101.679L1227.68 109.549L1229.14 108.089L1222.73 101.679L1236.36 88.0514L1236.94 88.6288H1249.47V86.5645H1237.79L1230.81 79.586H1240.57V83.2299H1239.85V81.3061H1237.78V85.2943H1242.63V82.3825L1249.19 77.3175H1262.38V75.2531H1249.19L1242.63 70.1879V66.9436H1237.78V70.9317H1239.85V69.0079H1240.57V72.652H1224.28L1222.84 74.0803C1222.96 71.8752 1222.18 69.6306 1220.5 67.9499C1217.36 64.8088 1212.25 64.8088 1209.11 67.9499C1205.97 71.0909 1205.97 76.2018 1209.11 79.3428C1210.68 80.9134 1212.74 81.6986 1214.81 81.6986C1214.95 81.6986 1215.09 81.6938 1215.24 81.6861L1210.44 86.4925H1202.9V93.4267H1213.31L1218.92 87.8247ZM1242.63 72.7965L1247.15 76.285L1242.63 79.7743L1242.63 72.7965ZM1227.75 93.7409L1216.93 82.9215L1219.78 80.0768L1221.35 81.6473L1220.09 82.9036L1223.36 86.1695L1224.61 84.9133L1225.98 86.2778L1224.72 87.534L1227.99 90.7999L1229.24 89.5437L1230.6 90.8961L1227.75 93.7409ZM1223.01 82.9036L1224.06 81.855L1224.4 82.2016L1223.36 83.2503L1223.01 82.9036ZM1227.64 87.534L1228.69 86.4854L1229.04 86.832L1227.99 87.8807L1227.64 87.534ZM1240.57 74.7163V77.5218H1228.75L1225.94 74.7163H1240.57ZM1224.08 75.7724L1234.9 86.5916L1232.06 89.4365L1230.7 88.0841L1231.95 86.832L1228.69 83.5661L1227.44 84.8182L1226.07 83.4537L1227.32 82.2016L1224.06 78.9357L1222.81 80.1877L1221.24 78.6171L1224.08 75.7724ZM1214.81 79.638C1213.2 79.638 1211.7 79.0147 1210.57 77.8831C1208.23 75.5468 1208.23 71.7457 1210.57 69.4095C1211.74 68.2413 1213.27 67.6574 1214.81 67.6574C1216.34 67.6574 1217.87 68.2415 1219.04 69.4095C1221.38 71.7457 1221.38 75.5468 1219.04 77.8831C1217.91 79.0147 1216.41 79.638 1214.81 79.638ZM1204.97 91.3621V88.5566H1211.3L1215.47 84.3811L1217.46 86.3649L1212.46 91.3621H1204.97Z" fill="white"/>
<path d="M1237.9 93.4987H1243.48V91.4344H1237.06L1230.46 97.9141L1226.7 101.679L1231.13 106.105L1232.59 104.646L1229.62 101.679L1231.92 99.3802L1237.9 93.4987Z" fill="white"/>
<path d="M1259.96 84.1251L1257.91 82.2834L1225.71 114.475L1227.24 116.051L1230.88 116.105L1259.9 87.7876L1259.96 84.1251ZM1257.85 86.9051L1230.05 114.028L1229.09 114.014L1257.87 85.2394L1257.85 86.9051Z" fill="white"/>
<path d="M1272.33 121.52C1269.11 121.52 1267.54 120.888 1265.88 120.219C1264.11 119.505 1262.27 118.768 1258.66 118.768C1255.04 118.768 1253.2 119.505 1251.43 120.219C1249.77 120.888 1248.2 121.52 1244.98 121.52C1241.76 121.52 1240.19 120.888 1238.52 120.219C1236.75 119.505 1234.92 118.768 1231.3 118.768C1227.68 118.768 1225.84 119.505 1224.07 120.219C1222.41 120.888 1220.84 121.52 1217.62 121.52C1214.4 121.52 1212.83 120.888 1211.16 120.219C1209.39 119.505 1207.56 118.768 1203.94 118.768H1202.9V136.052H1273.37V121.52H1272.33ZM1271.3 133.988H1271.3H1204.97V120.855C1207.51 120.976 1208.92 121.54 1210.39 122.134C1212.16 122.847 1214 123.585 1217.62 123.585C1221.24 123.585 1223.07 122.847 1224.84 122.134C1226.51 121.464 1228.08 120.832 1231.3 120.832C1234.52 120.832 1236.09 121.464 1237.75 122.134C1239.52 122.847 1241.36 123.585 1244.98 123.585C1248.6 123.585 1250.43 122.847 1252.2 122.134C1253.86 121.464 1255.44 120.832 1258.66 120.832C1261.88 120.832 1263.45 121.464 1265.11 122.134C1266.71 122.776 1268.35 123.438 1271.3 123.563V133.988Z" fill="white"/>
<path d="M1260.21 125.001C1262.43 125.169 1263.73 125.692 1265.11 126.247C1266.06 126.63 1267.05 127.027 1268.33 127.309L1268.78 125.293C1267.66 125.047 1266.79 124.7 1265.88 124.332C1264.42 123.743 1262.9 123.134 1260.36 122.943L1260.21 125.001Z" fill="white"/>
<path d="M1207.42 124.991C1208.03 125.12 1208.61 125.29 1209.26 125.527L1209.97 123.588C1209.23 123.317 1208.55 123.121 1207.85 122.972L1207.42 124.991Z" fill="white"/>
<path d="M1224.07 124.051C1222.41 124.721 1220.84 125.353 1217.62 125.353H1217.62C1216.4 125.353 1215.33 125.262 1214.37 125.075L1213.97 127.102C1215.07 127.314 1216.26 127.417 1217.62 127.417H1217.62C1221.24 127.417 1223.07 126.68 1224.84 125.967C1225.5 125.702 1226.12 125.453 1226.83 125.24L1226.24 123.262C1225.44 123.502 1224.74 123.781 1224.07 124.051Z" fill="white"/>
<path d="M1210.51 126.015C1211.16 126.277 1211.81 126.53 1212.54 126.749L1213.13 124.772C1212.48 124.578 1211.91 124.353 1211.28 124.1L1210.51 126.015Z" fill="white"/>
<path d="M1273.37 75.2532H1264.45V77.3175H1273.37V75.2532Z" fill="white"/>
<path d="M1220.16 104.97H1214.46V107.034H1220.16V104.97Z" fill="white"/>
<path d="M1209.65 104.97H1207.58V107.034H1209.65V104.97Z" fill="white"/>
<path d="M1213.09 104.97H1211.02V107.034H1213.09V104.97Z" fill="white"/>
<path d="M1213.29 98.2853H1205.03V100.35H1213.29V98.2853Z" fill="white"/>
<path d="M1217.77 98.2853H1215.35V100.35H1217.77V98.2853Z" fill="white"/>
<path d="M1268.07 114.205H1266.04V116.27H1268.07V114.205Z" fill="white"/>
<path d="M1264.66 114.205H1262.6V116.27H1264.66V114.205Z" fill="white"/>
<path d="M1261.22 114.205H1259.16V116.27H1261.22V114.205Z" fill="white"/>
<path d="M1265.06 103.776H1262.99V105.841H1265.06V103.776Z" fill="white"/>
<path d="M1254.73 103.776H1252.67V105.841H1254.73V103.776Z" fill="white"/>
<path d="M1261.61 103.776H1259.55V105.841H1261.61V103.776Z" fill="white"/>
<path d="M1258.17 103.776H1256.11V105.841H1258.17V103.776Z" fill="white"/>
<circle cx="1238.42" cy="103.424" r="51.9241" stroke="white" stroke-width="3"/>
<path d="M1315.33 131.75C1381.08 131.31 1445.87 110.45 1512.5 47" stroke="white" stroke-width="3" stroke-linecap="round" stroke-linejoin="round"/>
<path d="M995.25 79C1054.62 82.86 1106.42 93.31 1157.17 106" stroke="white" stroke-width="3" stroke-linecap="round" stroke-linejoin="round"/>
<path d="M674.35 126.12C692 119.46 709.82 113.46 728 108.5C765.655 98.1253 803.941 90.1988 842.62 84.77" stroke="white" stroke-width="3" stroke-linecap="round" stroke-linejoin="round"/>
<path d="M356.32 228.07C422.83 222.41 479.32 205.38 531.44 185.28" stroke="white" stroke-width="3" stroke-linecap="round" stroke-linejoin="round"/>
<path d="M-1 160.5C73.77 190.94 139.65 209.83 198.57 220.11" stroke="white" stroke-width="3" stroke-linecap="round" stroke-linejoin="round"/>
<path d="M634.336 166.839L629.377 159.34V121.861L633.276 116.02C633.761 115.293 633.566 114.31 632.839 113.825L626.054 109.296V96.7726C626.054 95.8989 625.346 95.1903 624.472 95.1903H617.457C616.583 95.1903 615.875 95.8989 615.875 96.7726V102.501L594.971 88.5471C594.439 88.192 593.745 88.1923 593.214 88.5471L581.361 96.4587C580.635 96.9438 580.439 97.9263 580.924 98.6532C581.409 99.3801 582.392 99.5761 583.118 99.0908L594.092 91.7656L629.766 115.579L627.306 119.264L594.971 97.6788C594.439 97.3237 593.745 97.3237 593.214 97.6788L560.878 119.264L558.419 115.579L571.274 106.997C572.001 106.512 572.197 105.53 571.712 104.803C571.227 104.076 570.244 103.88 569.517 104.365L555.346 113.825C554.619 114.31 554.423 115.293 554.908 116.02L558.807 121.861V166.13H555.168C554.294 166.13 553.585 166.838 553.585 167.712C553.585 168.586 554.294 169.294 555.168 169.294H633.017C633.599 169.294 634.134 168.974 634.41 168.461C634.686 167.948 634.658 167.325 634.336 166.839ZM619.04 98.3549H622.89V107.184L619.04 104.614V98.3549ZM610.64 131.007L612.451 128.268C612.933 127.539 612.733 126.558 612.004 126.076C611.275 125.594 610.293 125.794 609.811 126.523L608.743 128.138L607.675 126.523C607.193 125.794 606.211 125.594 605.482 126.076C604.753 126.558 604.553 127.539 605.035 128.268L606.846 131.007L605.959 132.348C593.285 143.261 574.165 142.853 561.972 131.127V123.49C563.479 123.877 565.002 124.198 566.535 124.453C566.149 125.14 565.927 125.931 565.927 126.774C565.927 129.391 568.057 131.521 570.674 131.521C573.292 131.521 575.421 129.391 575.421 126.774C575.421 126.217 575.324 125.683 575.147 125.186C575.241 125.186 575.336 125.188 575.431 125.188C576.899 125.188 578.369 125.128 579.836 125.009C579.762 125.34 579.723 125.684 579.723 126.037C579.723 128.654 581.852 130.784 584.469 130.784C587.087 130.784 589.216 128.654 589.216 126.037C589.216 125.14 588.966 124.3 588.532 123.584C590.147 123.182 591.741 122.707 593.307 122.161C593.325 124.764 595.447 126.875 598.053 126.875C600.671 126.875 602.8 124.746 602.8 122.128C602.8 120.752 602.211 119.511 601.271 118.643C602.514 117.971 603.73 117.25 604.916 116.483C605.434 118.543 607.301 120.073 609.519 120.073C612.137 120.073 614.266 117.943 614.266 115.326C614.266 114.969 614.225 114.621 614.15 114.287L626.213 122.339V154.555L610.64 131.007ZM617.869 162.451L611.686 153.102H617.869V162.451ZM610.325 149.938V136.268L619.365 149.938H610.325ZM587.5 145.002C587.5 145.874 586.79 146.584 585.918 146.584C585.045 146.584 584.335 145.874 584.335 145.002C584.335 144.129 585.045 143.419 585.918 143.419C586.79 143.419 587.5 144.129 587.5 145.002ZM573.9 142.957C573.9 143.829 573.191 144.539 572.318 144.539C571.446 144.539 570.736 143.829 570.736 142.957C570.736 142.084 571.446 141.375 572.318 141.375C573.191 141.375 573.9 142.084 573.9 142.957ZM572.256 126.774C572.256 127.646 571.547 128.356 570.674 128.356C569.802 128.356 569.092 127.646 569.092 126.774C569.092 125.901 569.802 125.192 570.674 125.192C571.547 125.192 572.256 125.902 572.256 126.774ZM586.052 126.037C586.052 126.909 585.342 127.619 584.469 127.619C583.597 127.619 582.887 126.909 582.887 126.037C582.887 125.164 583.597 124.454 584.469 124.454C585.342 124.454 586.052 125.164 586.052 126.037ZM599.635 122.129C599.635 123.001 598.926 123.711 598.053 123.711C597.181 123.711 596.471 123.001 596.471 122.129C596.471 121.256 597.181 120.546 598.053 120.546C598.926 120.546 599.635 121.256 599.635 122.129ZM609.519 113.744C610.392 113.744 611.102 114.454 611.102 115.326C611.102 116.199 610.392 116.909 609.519 116.909C608.647 116.909 607.937 116.199 607.937 115.326C607.937 114.454 608.647 113.744 609.519 113.744ZM594.092 100.897L608.078 110.234C595.967 120.311 579.63 124.224 564.289 120.792L594.092 100.897ZM561.972 135.357C564.095 137.094 566.39 138.566 568.813 139.759C568.042 140.603 567.571 141.726 567.571 142.957C567.571 145.574 569.701 147.704 572.318 147.704C574.936 147.704 577.065 145.574 577.065 142.957C577.065 142.843 577.06 142.73 577.052 142.618C578.509 142.93 579.992 143.152 581.494 143.282C581.286 143.815 581.171 144.395 581.171 145.001C581.171 147.619 583.3 149.748 585.918 149.748C588.535 149.748 590.664 147.619 590.664 145.001C590.664 144.282 590.503 143.6 590.215 142.988C594.133 142.38 597.89 141.133 601.363 139.297L583.619 166.13H561.972V135.357ZM607.161 136.268V151.044L597.184 166.13H587.413L607.161 136.268ZM600.978 166.13L608.743 154.388L616.508 166.13H600.978ZM621.033 166.13V152.46L630.073 166.13H621.033Z" fill="white"/>
<path d="M576.318 103.309C576.735 103.309 577.141 103.142 577.437 102.847C577.731 102.551 577.901 102.145 577.901 101.727C577.901 101.311 577.731 100.904 577.437 100.609C577.141 100.314 576.735 100.145 576.318 100.145C575.901 100.145 575.494 100.314 575.2 100.609C574.904 100.904 574.736 101.311 574.736 101.727C574.736 102.145 574.904 102.551 575.2 102.847C575.494 103.142 575.901 103.309 576.318 103.309Z" fill="white"/>
<circle cx="594.424" cy="136.424" r="59.9241" stroke="white" stroke-width="3"/>
<path d="M569.821 217.66H565.497L564.504 221H562.852L566.974 208.203H568.354L572.484 221H570.832L569.821 217.66ZM565.919 216.271H569.408L567.659 210.453L565.919 216.271ZM575.833 215.99V221H574.225V208.203H578.303C579.492 208.203 580.427 208.561 581.106 209.275C581.786 209.984 582.126 210.931 582.126 212.114C582.126 213.345 581.801 214.294 581.15 214.962C580.506 215.624 579.595 215.967 578.417 215.99H575.833ZM575.833 214.61H578.303C579.018 214.61 579.565 214.396 579.946 213.969C580.327 213.541 580.518 212.929 580.518 212.132C580.518 211.364 580.321 210.749 579.929 210.286C579.536 209.823 578.997 209.592 578.312 209.592H575.833V214.61ZM590.344 215.085H585.817V219.62H591.091V221H584.209V208.203H591.003V209.592H585.817V213.705H590.344V215.085ZM601.532 221H599.915V215.085H594.765V221H593.156V208.203H594.765V213.705H599.915V208.203H601.532V221ZM612.923 219.62H614.426L614.408 224.138H612.8V221H605.241V224.146H603.624L603.615 219.62H604.556C604.966 219.099 605.3 218.313 605.558 217.265C605.821 216.216 605.988 215.044 606.059 213.749L606.305 208.203H612.923V219.62ZM606.27 219.62H611.306V209.592H607.869L607.685 213.723C607.614 215.076 607.453 216.245 607.201 217.229C606.949 218.208 606.639 219.005 606.27 219.62ZM622.503 217.66H618.179L617.186 221H615.533L619.655 208.203H621.035L625.166 221H623.514L622.503 217.66ZM618.601 216.271H622.09L620.341 210.453L618.601 216.271Z" fill="white"/>
</svg>
