<svg width="57" height="79" viewBox="0 0 57 79" fill="none" xmlns="http://www.w3.org/2000/svg">
<path d="M15.6553 73.5293H14.7119V78H13.4609V68.0469H14.7119V72.4355H15.4775L18.2803 68.0469H19.8389L16.6807 72.8594L20.0713 78H18.54L15.6553 73.5293ZM25.8887 75.4023H22.5254L21.7529 78H20.4678L23.6738 68.0469H24.7471L27.96 78H26.6748L25.8887 75.4023ZM22.8535 74.3223H25.5674L24.207 69.7969L22.8535 74.3223ZM33.6201 69.0449H33.791C34.4062 69.0495 34.9736 69.2249 35.4932 69.5713C36.0173 69.9176 36.4251 70.3962 36.7168 71.0068C37.0085 71.613 37.1543 72.292 37.1543 73.0439C37.1543 73.8005 37.0085 74.4863 36.7168 75.1016C36.4251 75.7122 36.0195 76.193 35.5 76.5439C34.9805 76.8903 34.4085 77.0658 33.7842 77.0703H33.6201V78.4102H32.4102V77.0703H32.2461C31.6172 77.0703 31.043 76.8971 30.5234 76.5508C30.0039 76.2044 29.5983 75.7236 29.3066 75.1084C29.015 74.4932 28.8691 73.8096 28.8691 73.0576C28.8691 72.3011 29.015 71.6152 29.3066 71C29.6029 70.3848 30.0085 69.9062 30.5234 69.5645C31.043 69.2181 31.6195 69.0449 32.2529 69.0449H32.4102V67.6367H33.6201V69.0449ZM32.2461 70.0771C31.5716 70.0771 31.0384 70.3392 30.6465 70.8633C30.2591 71.3874 30.0654 72.1188 30.0654 73.0576C30.0654 73.9919 30.2568 74.721 30.6396 75.2451C31.0225 75.7646 31.5534 76.0267 32.2324 76.0312H32.4102V70.0771H32.2461ZM33.6201 70.0771V76.0312H33.7773C34.4564 76.0312 34.9873 75.7646 35.3701 75.2314C35.7575 74.6982 35.9512 73.9691 35.9512 73.0439C35.9512 72.1416 35.762 71.4261 35.3838 70.8975C35.0101 70.3643 34.4906 70.0908 33.8252 70.0771H33.6201ZM43.5596 73.3994H40.0391V76.9268H44.1406V78H38.7881V68.0469H44.0723V69.127H40.0391V72.3262H43.5596V73.3994Z" fill="white"/>
<path d="M46.5989 25.7856C46.5989 25.6298 46.5432 25.4763 46.4287 25.3618L41.6337 20.5668C41.5216 20.4541 41.3694 20.3912 41.2099 20.3912H35.2162V19.1924H38.213C38.5445 19.1924 38.8124 18.9239 38.8124 18.5931V9.003C38.8124 8.67215 38.5445 8.40363 38.213 8.40363H17.8342C17.5027 8.40363 17.2348 8.67215 17.2348 9.003V18.5931C17.2348 18.9239 17.5027 19.1924 17.8342 19.1924H20.8311V20.3912H14.8373C14.6778 20.3912 14.5256 20.4541 14.4135 20.5668L9.61849 25.3618C9.50401 25.4763 9.44827 25.6298 9.44827 25.7856H9.44287V28.7825C9.44287 29.844 9.90799 30.7964 10.6416 31.4557V44.9657C10.6416 45.2966 10.9096 45.5651 11.241 45.5651H44.8062C45.1377 45.5651 45.4056 45.2966 45.4056 44.9657V31.4557C46.1392 30.797 46.6043 29.8446 46.6043 28.7825V25.7856H46.5989ZM34.0174 20.3912H32.8186V19.1924H34.0174V20.3912ZM31.6199 19.1924V20.3912H24.4273V19.1924H31.6199ZM18.4335 9.60238H37.6137V17.9937H18.4335V9.60238ZM22.0298 19.1924H23.2286V20.3912H22.0298V19.1924ZM15.0854 21.59H40.9618L44.5581 25.1862H11.4891L15.0854 21.59ZM10.6416 28.7825V26.385H15.4367V28.7825C15.4367 30.1047 14.3614 31.18 13.0391 31.18C11.7169 31.18 10.6416 30.1047 10.6416 28.7825ZM16.6354 26.385H21.4304V28.7825C21.4304 30.1047 20.3552 31.18 19.0329 31.18C17.7107 31.18 16.6354 30.1047 16.6354 28.7825V26.385ZM22.6292 26.385H27.4242V28.7825C27.4242 30.1047 26.3489 31.18 25.0267 31.18C23.7045 31.18 22.6292 30.1047 22.6292 28.7825V26.385ZM28.623 26.385H33.418V28.7825C33.418 30.1047 32.3427 31.18 31.0205 31.18C29.6983 31.18 28.623 30.1047 28.623 28.7825V26.385ZM34.6168 26.385H39.4118V28.7825C39.4118 30.1047 38.3365 31.18 37.0143 31.18C35.6921 31.18 34.6168 30.1047 34.6168 28.7825V26.385ZM23.828 44.3663H20.2317V35.975H23.828V44.3663ZM19.0329 44.3663H15.4367V35.975H19.0329V44.3663ZM40.6106 44.3663H37.0143V35.975H40.6106V44.3663ZM35.8155 44.3663H32.2193V35.975H35.8155V44.3663ZM44.2068 44.3663H41.8093V35.3757C41.8093 35.0448 41.5414 34.7763 41.2099 34.7763H31.6199C31.2884 34.7763 31.0205 35.0448 31.0205 35.3757V44.3663H25.0267V35.3757C25.0267 35.0448 24.7588 34.7763 24.4273 34.7763H14.8373C14.5058 34.7763 14.2379 35.0448 14.2379 35.3757V44.3663H11.8404V32.169C12.2162 32.302 12.6184 32.3788 13.0391 32.3788C14.2894 32.3788 15.3911 31.7368 16.036 30.7664C16.681 31.7374 17.7826 32.3788 19.0329 32.3788C20.2832 32.3788 21.3849 31.7368 22.0298 30.7664C22.6748 31.7374 23.7764 32.3788 25.0267 32.3788C26.277 32.3788 27.3787 31.7368 28.0236 30.7664C28.6685 31.7374 29.7702 32.3788 31.0205 32.3788C32.2708 32.3788 33.3725 31.7368 34.0174 30.7664C34.6623 31.7374 35.764 32.3788 37.0143 32.3788C38.2646 32.3788 39.3662 31.7368 40.0112 30.7664C40.6561 31.7374 41.7578 32.3788 43.0081 32.3788C43.4288 32.3788 43.831 32.302 44.2068 32.169V44.3663ZM43.0081 31.18C41.6858 31.18 40.6106 30.1047 40.6106 28.7825V26.385H45.4056V28.7825C45.4056 30.1047 44.3303 31.18 43.0081 31.18Z" fill="white"/>
<path d="M19.6323 12.5993V14.9968C19.6323 15.9882 20.4391 16.7949 21.4305 16.7949H23.2286V15.5962H21.4305C21.0996 15.5962 20.8311 15.327 20.8311 14.9968V12.5993C20.8311 12.269 21.0996 11.9999 21.4305 11.9999H23.2286V10.8011H21.4305C20.4391 10.8011 19.6323 11.6079 19.6323 12.5993Z" fill="white"/>
<path d="M29.2222 11.9999V16.7949H30.4209V14.3974H32.2191V13.1986H30.4209V11.9999H32.2191V10.8011H30.4209C29.7598 10.8011 29.2222 11.3388 29.2222 11.9999Z" fill="white"/>
<path d="M33.4177 11.9999V15.5962C33.4177 16.2573 33.9554 16.7949 34.6165 16.7949H36.4146V15.5962H34.6165V14.3974H36.4146V13.1986H34.6165V11.9999H36.4146V10.8011H34.6165C33.9554 10.8011 33.4177 11.3388 33.4177 11.9999Z" fill="white"/>
<path d="M26.2251 10.8011C25.2338 10.8011 24.427 11.6079 24.427 12.5993V16.7949H25.6258V15.5962H26.8245V16.7949H28.0233V12.5993C28.0233 11.6079 27.2165 10.8011 26.2251 10.8011ZM25.6258 14.3974V12.5993C25.6258 12.269 25.8943 11.9999 26.2251 11.9999C26.556 11.9999 26.8245 12.269 26.8245 12.5993V14.3974H25.6258Z" fill="white"/>
<circle cx="28.1757" cy="28.9643" r="27.6757" stroke="white"/>
</svg>
