<svg width="81" height="78" viewBox="0 0 81 78" fill="none" xmlns="http://www.w3.org/2000/svg">
<path d="M4.57715 72.5293H3.63379V77H2.38281V67.0469H3.63379V71.4355H4.39941L7.20215 67.0469H8.76074L5.60254 71.8594L8.99316 77H7.46191L4.57715 72.5293ZM16.4238 72.8984C16.4238 74.2565 16.1344 75.3024 15.5557 76.0361C14.9769 76.7699 14.1543 77.1367 13.0879 77.1367C12.0625 77.1367 11.2513 76.7812 10.6543 76.0703C10.0618 75.3548 9.75423 74.3454 9.73145 73.042V71.1689C9.73145 69.8382 10.0254 68.7969 10.6133 68.0449C11.2012 67.2884 12.0215 66.9102 13.0742 66.9102C14.1224 66.9102 14.9382 67.2725 15.5215 67.9971C16.1094 68.7171 16.4102 69.7471 16.4238 71.0869V72.8984ZM15.1729 71.1553C15.1729 70.1025 14.9997 69.321 14.6533 68.8105C14.3115 68.2956 13.7852 68.0381 13.0742 68.0381C12.3861 68.0381 11.8643 68.2979 11.5088 68.8174C11.1579 69.3369 10.9801 70.1025 10.9756 71.1143V72.8984C10.9756 73.9147 11.151 74.6895 11.502 75.2227C11.8574 75.7559 12.3861 76.0225 13.0879 76.0225C13.7897 76.0225 14.3092 75.7764 14.6465 75.2842C14.9837 74.792 15.1592 74.0378 15.1729 73.0215V71.1553ZM19.6094 73.1035V77H18.3584V67.0469H21.5303C22.4554 67.0469 23.1823 67.3249 23.7109 67.8809C24.2396 68.4323 24.5039 69.1683 24.5039 70.0889C24.5039 71.0459 24.251 71.7842 23.7451 72.3037C23.2438 72.8187 22.5352 73.0853 21.6191 73.1035H19.6094ZM19.6094 72.0303H21.5303C22.0863 72.0303 22.5124 71.8639 22.8086 71.5312C23.1048 71.1986 23.2529 70.7223 23.2529 70.1025C23.2529 69.5055 23.1003 69.027 22.7949 68.667C22.4896 68.307 22.0703 68.127 21.5371 68.127H19.6094V72.0303ZM32.5908 77H31.333V68.127H27.4365V77H26.1855V67.0469H32.5908V77ZM41.293 72.8984C41.293 74.2565 41.0036 75.3024 40.4248 76.0361C39.846 76.7699 39.0234 77.1367 37.957 77.1367C36.9316 77.1367 36.1204 76.7812 35.5234 76.0703C34.931 75.3548 34.6234 74.3454 34.6006 73.042V71.1689C34.6006 69.8382 34.8945 68.7969 35.4824 68.0449C36.0703 67.2884 36.8906 66.9102 37.9434 66.9102C38.9915 66.9102 39.8073 67.2725 40.3906 67.9971C40.9785 68.7171 41.2793 69.7471 41.293 71.0869V72.8984ZM40.042 71.1553C40.042 70.1025 39.8688 69.321 39.5225 68.8105C39.1807 68.2956 38.6543 68.0381 37.9434 68.0381C37.2552 68.0381 36.7334 68.2979 36.3779 68.8174C36.027 69.3369 35.8493 70.1025 35.8447 71.1143V72.8984C35.8447 73.9147 36.0202 74.6895 36.3711 75.2227C36.7266 75.7559 37.2552 76.0225 37.957 76.0225C38.6589 76.0225 39.1784 75.7764 39.5156 75.2842C39.8529 74.792 40.0283 74.0378 40.042 73.0215V71.1553ZM44.4785 73.1035V77H43.2275V67.0469H46.3994C47.3245 67.0469 48.0514 67.3249 48.5801 67.8809C49.1087 68.4323 49.373 69.1683 49.373 70.0889C49.373 71.0459 49.1201 71.7842 48.6143 72.3037C48.113 72.8187 47.4043 73.0853 46.4883 73.1035H44.4785ZM44.4785 72.0303H46.3994C46.9554 72.0303 47.3815 71.8639 47.6777 71.5312C47.974 71.1986 48.1221 70.7223 48.1221 70.1025C48.1221 69.5055 47.9694 69.027 47.6641 68.667C47.3587 68.307 46.9395 68.127 46.4062 68.127H44.4785V72.0303ZM54.6914 74.4023H51.3281L50.5557 77H49.2705L52.4766 67.0469H53.5498L56.7627 77H55.4775L54.6914 74.4023ZM51.6562 73.3223H54.3701L53.0098 68.7969L51.6562 73.3223ZM63.0449 68.127H60.4268V77H59.1758V68.127H56.5645V67.0469H63.0449V68.127ZM69.7031 67.0469H70.9541V77H69.7031V69.3301L65.8271 77H64.5693V67.0469H65.8271V74.7168L69.7031 67.0469ZM73.1826 77V67.0469H76.0195C76.9264 67.0469 77.6077 67.2679 78.0635 67.71C78.5238 68.152 78.7539 68.8151 78.7539 69.6992C78.7539 70.1641 78.6377 70.5742 78.4053 70.9297C78.1729 71.2852 77.8584 71.5609 77.4619 71.7568C77.9176 71.8936 78.2777 72.1738 78.542 72.5977C78.8109 73.0215 78.9453 73.5319 78.9453 74.1289C78.9453 75.0221 78.6992 75.724 78.207 76.2344C77.7194 76.7448 77.0221 77 76.1152 77H73.1826ZM74.4336 72.3447V75.9268H76.1426C76.6165 75.9268 76.9925 75.7718 77.2705 75.4619C77.5485 75.1475 77.6875 74.7077 77.6875 74.1426C77.6875 72.944 77.1816 72.3447 76.1699 72.3447H74.4336ZM74.4336 71.292H76.04C76.473 71.292 76.8216 71.1462 77.0859 70.8545C77.3548 70.5628 77.4893 70.1755 77.4893 69.6924C77.4893 69.1455 77.3685 68.749 77.127 68.5029C76.8854 68.2523 76.5163 68.127 76.0195 68.127H74.4336V71.292Z" fill="white"/>
<path d="M39.8005 21.6493H40.5337C40.8343 21.6493 41.0781 21.4058 41.0781 21.1049C41.0781 20.8044 40.8343 20.5606 40.5337 20.5606H40.0033V19.0367C40.0033 18.7359 39.7597 18.4923 39.4589 18.4923C39.1584 18.4923 38.9146 18.7359 38.9146 19.0367V20.7656C38.9146 21.2529 39.312 21.6493 39.8005 21.6493Z" fill="white"/>
<path d="M37.2711 19.7795V18.5519C37.2711 18.2511 37.0275 18.0075 36.7267 18.0075C36.4262 18.0075 36.1824 18.2511 36.1824 18.5519V19.7795C36.1824 20.08 36.4262 20.3239 36.7267 20.3239C37.0275 20.3239 37.2711 20.08 37.2711 19.7795Z" fill="white"/>
<path d="M37.7585 17.6012C37.8646 17.7067 38.0035 17.7594 38.1421 17.7594C38.2819 17.7594 38.422 17.7058 38.5283 17.5989C38.7401 17.3857 38.7392 17.0409 38.526 16.8292C37.5337 15.8431 35.9196 15.8431 34.9276 16.8292C34.7141 17.0409 34.7133 17.3857 34.9251 17.5989C35.1371 17.8121 35.4819 17.8133 35.6951 17.6012C36.2638 17.0358 37.1895 17.0358 37.7585 17.6012Z" fill="white"/>
<path d="M43.2255 18.0075C42.925 18.0075 42.6812 18.2511 42.6812 18.5519V19.7795C42.6812 20.08 42.925 20.3239 43.2255 20.3239C43.526 20.3239 43.7699 20.08 43.7699 19.7795V18.5519C43.7699 18.2511 43.526 18.0075 43.2255 18.0075Z" fill="white"/>
<path d="M42.1943 17.6012C42.763 17.0359 43.689 17.0359 44.2577 17.6012C44.364 17.7067 44.5027 17.7594 44.6416 17.7594C44.7814 17.7594 44.9211 17.7058 45.0275 17.5989C45.2395 17.3857 45.2384 17.041 45.0252 16.8292C44.0332 15.8431 42.4188 15.8431 41.4268 16.8289C41.2136 17.041 41.2124 17.3854 41.4242 17.5989C41.6363 17.8121 41.981 17.8133 42.1943 17.6012Z" fill="white"/>
<path d="M42.0034 22.0182H37.9891C37.4297 22.0182 36.9744 22.4721 36.9744 23.03C36.9744 24.6878 38.3299 26.0368 39.9964 26.0368C41.6624 26.0368 43.0182 24.6878 43.0182 23.03C43.0182 22.4721 42.5628 22.0182 42.0034 22.0182ZM39.9964 24.948C38.9562 24.948 38.1056 24.129 38.0645 23.1069H41.9277C41.8869 24.129 41.0361 24.948 39.9964 24.948Z" fill="white"/>
<path d="M59.3177 27.5856V22.7332C59.3177 22.1982 58.8814 21.7632 58.3453 21.7632H54.3196C53.7831 21.7632 53.3471 22.1982 53.3471 22.7332V27.5856C53.3471 29.0384 54.4009 30.2501 55.7879 30.5056V33.1278H55.2869C54.8719 33.1278 54.499 33.3065 54.2382 33.5894L52.1061 30.6456C51.851 28.7761 50.2369 27.3301 48.2888 27.3301H46.0621L45.3374 25.8102C46.2211 24.9494 46.8607 23.8414 47.1414 22.5996H47.7076C48.6954 22.5996 49.4992 21.7987 49.4992 20.8143V19.3122C49.4992 18.5892 49.0654 17.9658 48.4442 17.6854V15.9619C48.4442 15.6613 48.2004 15.4175 47.8998 15.4175C47.5993 15.4175 47.3555 15.6613 47.3555 15.9619V17.5269H47.2849C47.1718 15.7991 46.4298 14.3322 45.1205 13.2636C44.865 13.0549 44.5895 12.8653 44.2977 12.694V11.865C44.2977 11.4247 44.23 11 44.1046 10.6005C44.3071 10.5407 44.5206 10.5078 44.7423 10.5078H45.1009C46.3442 10.5078 47.3555 11.5132 47.3555 12.7487V13.349C47.3555 13.6495 47.5993 13.8933 47.8998 13.8933C48.2004 13.8933 48.4442 13.6495 48.4442 13.349V12.7487C48.4442 10.9127 46.9444 9.41909 45.1009 9.41909H44.7423C44.3567 9.41909 43.987 9.48571 43.6422 9.60593C42.8858 8.41117 41.5498 7.61505 40.0299 7.61505H35.8165C33.463 7.61505 31.5487 9.52172 31.5487 11.865V17.6854C30.9272 17.9658 30.4937 18.5892 30.4937 19.3122V20.8143C30.4937 21.799 31.2972 22.5996 32.285 22.5996H32.8512C33.1319 23.8417 33.7715 24.9497 34.6552 25.8102L33.9305 27.3304H31.2283C29.1036 27.3304 27.375 29.05 27.375 31.1636V43.863C27.375 44.3668 27.785 44.7765 28.2888 44.7765H51.2284C51.7322 44.7765 52.1421 44.3666 52.1421 43.863V39.8518L53.2099 41.3261C53.7143 42.0224 54.5305 42.4378 55.3938 42.4378C55.9594 42.4378 56.5021 42.2637 56.9625 41.9342C57.5469 41.516 57.9322 40.8963 58.0476 40.1892C58.0773 40.0057 58.0875 39.8217 58.0796 39.6403C58.5894 39.4231 58.9475 38.9187 58.9475 38.3321V37.6636C58.9475 37.3631 58.7039 37.1192 58.4031 37.1192C58.1026 37.1192 57.8587 37.3631 57.8587 37.6636V38.3321C57.8587 38.5158 57.7073 38.6653 57.5216 38.6653H55.2866C55.1007 38.6653 54.9495 38.5158 54.9495 38.3321V37.9712C54.9495 37.8728 54.9938 37.7795 55.0709 37.7158C55.1959 37.6126 55.2685 37.4586 55.2685 37.2964C55.2685 37.134 55.1959 36.9803 55.0709 36.8768C54.9938 36.813 54.9495 36.7197 54.9495 36.6214V36.2604C54.9495 36.1618 54.9938 36.0688 55.0709 36.005C55.1959 35.9015 55.2682 35.7478 55.2682 35.5857C55.2682 35.4232 55.1959 35.2695 55.0709 35.1661C54.9938 35.1023 54.9493 35.009 54.9493 34.9106V34.5497C54.9493 34.366 55.1007 34.2166 55.2866 34.2166H57.5214C57.7073 34.2166 57.8587 34.366 57.8587 34.5497V35.1233C57.8587 35.4238 58.1023 35.6676 58.4031 35.6676C58.7036 35.6676 58.9475 35.4238 58.9475 35.1233V34.5497C58.9475 33.7658 58.3076 33.1278 57.5214 33.1278H56.8766V30.5056C58.2636 30.2501 59.3177 29.0384 59.3177 27.5856ZM46.7811 31.3686L45.3275 32.389C44.8945 32.6926 44.7806 33.2971 45.0734 33.7368L46.7076 36.1884C46.7295 36.2267 46.7351 36.3313 46.7184 36.3702C46.7071 36.392 46.6974 36.4144 46.6889 36.4376L44.0913 43.6878H43.6153V27.0169C43.9135 26.8728 44.1991 26.7067 44.4701 26.521L46.7811 31.3686ZM42.5266 35.5465L42.0012 36.3033L41.496 33.7045L42.1106 32.8026L42.5266 33.0876V35.5465ZM37.466 33.0453L37.8649 32.778L38.4966 33.7048L37.9917 36.3033L37.4663 35.5465V33.0453H37.466ZM39.5241 33.2792L38.7694 32.1715L39.993 31.3507L41.2127 32.1871L40.4682 33.2792C40.3866 33.3992 40.3562 33.5469 40.3837 33.6895L41.1345 37.5516L39.9962 39.1915L38.8578 37.5516L39.6086 33.6895C39.6364 33.5469 39.606 33.3992 39.5241 33.2792ZM42.5266 31.7678L40.3766 30.2938C40.3971 30.2736 40.4166 30.2527 40.4339 30.2291L42.5028 27.4322C42.5107 27.4302 42.5186 27.428 42.5263 27.426V31.7678H42.5266ZM39.9964 28.9902L39.0112 27.6585C39.077 27.6604 39.1428 27.6619 39.2088 27.6619H40.7838C40.8498 27.6619 40.9156 27.6604 40.9814 27.6585L39.9964 28.9902ZM37.4896 27.4322L39.5587 30.2291C39.5757 30.2524 39.595 30.2734 39.6154 30.2929L37.466 31.7343V27.4257C37.474 27.428 37.4819 27.4302 37.4896 27.4322ZM37.466 37.4558L39.549 40.4563C39.6508 40.6028 39.8178 40.6902 39.9962 40.6902C40.1748 40.6902 40.3418 40.6028 40.4436 40.4563L42.5263 37.4558V43.6878H37.466V37.4558ZM48.4104 20.8143C48.4104 21.1985 48.0952 21.5109 47.7076 21.5109H47.2917C47.2974 21.3992 47.3005 21.2869 47.3005 21.1738V18.6156H47.7076C48.0952 18.6156 48.4104 18.928 48.4104 19.3122V20.8143ZM35.8165 8.70377H40.0299C41.7829 8.70377 43.209 10.1219 43.209 11.865V12.174C42.2391 11.8032 41.1472 11.6062 39.9964 11.6062C38.001 11.6062 36.1814 12.1947 34.8721 13.2636C33.5628 14.3325 32.8208 15.7994 32.7077 17.5269H32.6374V11.865C32.6374 10.1219 34.0635 8.70377 35.8165 8.70377ZM32.285 21.5109C31.8977 21.5109 31.5824 21.1985 31.5824 20.8143V19.3122C31.5824 18.928 31.8974 18.6156 32.285 18.6156H32.6921V21.1738C32.6921 21.2869 32.6952 21.3992 32.7009 21.5109H32.285ZM33.7808 21.1738V17.9956C33.7808 15.3571 35.7028 12.6949 39.9964 12.6949C44.2898 12.6949 46.2118 15.3571 46.2118 17.9956V21.1738C46.2118 24.151 43.7769 26.5732 40.7838 26.5732H39.2088C36.2157 26.5732 33.7808 24.151 33.7808 21.1738ZM28.4637 31.1636C28.4637 29.6502 29.7038 28.4189 31.2283 28.4189H33.4114L32.2161 30.9263C31.9975 31.3751 32.1469 31.9518 32.556 32.239L33.9549 33.2206L32.378 35.5862C32.1458 35.935 32.1103 36.4518 32.2887 36.8332L32.9643 38.7183C33.0655 39.0012 33.3771 39.1487 33.6603 39.0472C33.9433 38.9457 34.0904 38.6341 33.9892 38.3511L33.3037 36.4376C33.2952 36.4144 33.2864 36.3937 33.275 36.3719C33.2575 36.3313 33.2631 36.2267 33.2838 36.1899L34.9189 33.7368C35.212 33.2974 35.0981 32.6926 34.6654 32.389L33.2113 31.3686L35.5225 26.521C35.7933 26.7067 36.0791 26.8728 36.3773 27.0169V43.6878H35.901L34.8732 40.8186C34.7717 40.5356 34.4602 40.3885 34.1772 40.4897C33.894 40.5912 33.7468 40.9028 33.8483 41.1857L34.7448 43.6878H30.4529V35.2157C30.4529 34.9149 30.2093 34.6713 29.9085 34.6713C29.608 34.6713 29.3642 34.9149 29.3642 35.2157V43.6878H28.4637V31.1636ZM51.0534 43.6878H45.2478L47.7039 36.8332C47.882 36.4518 47.8468 35.935 47.6143 35.5862L46.0377 33.2206L47.4363 32.239C47.8457 31.9515 47.9948 31.3751 47.7782 30.9306L46.5809 28.4189H48.2885C49.813 28.4189 51.0534 29.6502 51.0534 31.1636V43.6878ZM55.2866 39.754H56.9926C56.9932 39.8402 56.9872 39.9272 56.973 40.0142C56.9047 40.4333 56.6759 40.8007 56.3289 41.0488C56.0544 41.2453 55.7309 41.3493 55.3938 41.3493C54.8787 41.3493 54.3919 41.1018 54.0919 40.6873L52.1421 37.9959V32.5517L53.8614 34.9251C53.8637 35.159 53.9229 35.3849 54.0315 35.5857C53.9207 35.7904 53.8608 36.0214 53.8608 36.2604V36.6214C53.8608 36.8607 53.9207 37.0917 54.0315 37.2964C53.9207 37.5011 53.8608 37.7319 53.8608 37.9712V38.3321C53.8608 39.1161 54.5005 39.754 55.2866 39.754ZM54.4355 22.852H58.229V24.1893H54.4355V22.852ZM56.3323 29.4673C55.2864 29.4673 54.4355 28.623 54.4355 27.5856V25.278H58.229V27.5856C58.229 28.623 57.3782 29.4673 56.3323 29.4673Z" fill="white"/>
<circle cx="40.9299" cy="28.1757" r="27.6757" stroke="white"/>
</svg>
